<?xml version="1.0" standalone="no"?>
<!DOCTYPE svg PUBLIC "-//W3C//DTD SVG 20010904//EN"
 "http://www.w3.org/TR/2001/REC-SVG-20010904/DTD/svg10.dtd">
<svg version="1.0" xmlns="http://www.w3.org/2000/svg"
 width="1172.000000pt" height="1280.000000pt" viewBox="0 0 1172.000000 1280.000000"
 preserveAspectRatio="xMidYMid meet">
<metadata>
Created by potrace 1.15, written by Peter Selinger 2001-2017
</metadata>
<g transform="translate(0.000000,1280.000000) scale(0.100000,-0.100000)"
fill="#000000" stroke="none">
<path d="M6535 12794 c-119 -19 -248 -81 -324 -156 -71 -71 -103 -140 -109
-234 -4 -68 -7 -76 -31 -88 -60 -32 -99 -98 -112 -192 -5 -35 -18 -92 -30
-126 -22 -66 -148 -390 -153 -395 -2 -3 -465 -104 -1111 -243 -99 -21 -369
-80 -600 -130 -231 -50 -501 -109 -600 -130 -99 -21 -369 -80 -600 -130 -231
-50 -501 -109 -600 -130 -99 -21 -369 -80 -600 -130 -231 -50 -481 -104 -555
-120 -74 -16 -301 -65 -503 -109 l-369 -80 -53 39 c-30 22 -57 40 -60 40 -3 0
-5 -25 -5 -55 0 -48 -3 -55 -19 -55 -11 0 -27 -3 -36 -6 -13 -5 -9 -11 20 -31
31 -21 35 -28 35 -68 0 -42 -2 -45 -27 -45 l-26 0 6 -647 c4 -357 4 -658 1
-670 -3 -12 -22 -32 -41 -43 -31 -18 -35 -24 -29 -51 3 -17 23 -51 43 -76 l38
-46 1 -631 c1 -347 4 -638 8 -646 3 -8 10 -121 15 -250 l9 -234 27 -23 c14
-13 44 -26 66 -29 35 -6 39 -9 40 -38 2 -54 14 -80 49 -104 27 -18 44 -23 73
-19 34 5 37 3 37 -18 0 -67 47 -105 129 -105 l39 0 7 -59 c8 -66 26 -90 87
-116 24 -10 40 -24 44 -39 10 -41 58 -78 108 -83 l45 -5 6 -67 c4 -36 13 -76
21 -88 14 -23 69 -43 117 -43 24 0 27 -4 27 -34 0 -60 17 -91 66 -114 60 -29
80 -28 87 4 3 18 0 27 -12 31 -71 21 -78 29 -84 94 -9 85 -9 119 2 119 5 0 12
-19 16 -42 14 -96 13 -95 68 -118 62 -27 67 -33 67 -88 0 -85 40 -136 128
-164 36 -11 42 -17 51 -54 12 -46 43 -76 97 -94 26 -9 34 -17 34 -36 0 -50 32
-162 50 -179 19 -17 36 -17 287 -4 296 15 383 15 460 4 43 -6 58 -4 85 12 26
15 61 21 160 26 122 7 127 6 169 -18 69 -39 150 -32 174 15 13 25 21 28 82 33
66 5 69 4 105 -29 61 -55 136 -42 161 28 8 22 18 23 370 49 192 13 327 18 378
14 64 -6 84 -4 104 9 13 9 37 16 53 16 29 0 30 -2 36 -62 27 -277 58 -582 62
-623 l6 -50 -414 -164 c-1410 -559 -2024 -816 -2464 -1031 -389 -189 -494
-269 -494 -375 0 -77 89 -287 220 -520 296 -527 697 -1090 1013 -1421 53 -56
97 -107 97 -113 0 -6 7 -11 16 -11 8 0 44 -21 80 -46 99 -71 196 -104 303
-104 90 0 239 17 425 49 105 18 114 18 194 -5 9 -3 3 -17 -21 -44 -86 -101
-128 -233 -128 -403 1 -194 46 -312 166 -433 84 -85 189 -141 341 -180 82 -22
123 -26 239 -27 130 -1 145 1 210 26 252 98 408 330 408 607 0 144 -44 283
-125 396 -27 37 -31 52 -29 92 2 36 -3 56 -21 82 -27 40 -91 86 -131 95 -29 7
-37 25 -11 25 33 0 1105 261 1699 414 340 87 1393 363 1645 431 1082 292 985
268 957 237 -9 -10 -28 -43 -42 -74 -78 -170 -72 -433 12 -591 15 -29 59 -84
98 -122 131 -132 315 -202 560 -212 122 -5 135 -4 210 22 103 34 176 79 247
152 149 152 215 376 174 583 -19 96 -65 204 -113 267 -27 36 -33 52 -33 94 0
131 -92 187 -381 234 -21 3 -41 11 -47 18 -6 8 -5 56 4 137 36 339 77 909 95
1299 15 341 6 1026 -15 1201 -30 242 -67 377 -130 483 l-34 56 34 118 c118
408 407 1658 727 3138 l93 430 34 17 c19 10 94 40 165 68 196 76 201 79 254
135 62 65 104 130 173 270 109 217 254 604 239 634 -8 14 -1 21 39 39 59 27
83 56 228 272 197 293 325 415 556 531 159 79 119 145 -126 209 -146 38 -446
90 -521 90 -32 0 -102 11 -155 24 -368 93 -903 206 -2252 475 -1026 204 -1281
251 -1475 271 -85 9 -124 18 -172 41 -111 53 -173 70 -268 74 -49 2 -103 1
-120 -1z m766 -419 c277 -95 665 -187 1439 -340 675 -133 1219 -234 1575 -291
94 -15 172 -29 174 -31 3 -2 -7 -16 -21 -31 -14 -15 -34 -40 -44 -57 -11 -16
-26 -37 -34 -45 -8 -8 -71 -86 -139 -173 -68 -88 -130 -161 -137 -164 -8 -3
-201 36 -431 87 -1608 353 -2145 469 -2658 574 -148 31 -283 59 -298 63 -28 8
-27 9 105 145 134 137 217 201 297 228 24 7 50 24 59 37 21 28 23 28 113 -2z
m-1062 -277 l50 -53 -29 -12 c-43 -18 -94 -101 -150 -244 -45 -113 -52 -125
-80 -133 -17 -5 -32 -7 -35 -4 -2 2 18 67 46 143 28 76 57 174 65 218 10 62
20 87 41 109 15 15 30 28 34 28 4 0 30 -24 58 -52z m230 -264 c2 -2 -9 -33
-24 -70 l-28 -66 -46 8 c-25 4 -58 7 -73 6 -16 -1 -28 1 -28 4 0 8 52 108 63
123 8 10 26 11 72 6 33 -3 62 -8 64 -11z m378 -73 c461 -92 1374 -289 2672
-576 289 -63 527 -117 529 -119 4 -5 -28 -170 -37 -183 -3 -6 -25 -14 -48 -18
-38 -6 -43 -5 -43 12 0 16 -16 23 -97 41 -54 11 -287 64 -518 117 -231 53
-697 159 -1035 236 -338 77 -802 183 -1030 235 -228 52 -467 106 -531 121
l-117 26 25 56 c19 43 22 60 14 73 -15 25 -14 24 216 -21z m-517 -257 c-9 -26
-46 -61 -55 -52 -2 2 0 19 4 38 5 25 13 36 31 40 32 9 32 9 20 -26z m-83 -31
c-3 -10 -5 -2 -5 17 0 19 2 27 5 18 2 -10 2 -26 0 -35z m383 6 c91 -21 92 -21
85 -48 -15 -58 -247 -1002 -266 -1081 -11 -47 -22 -92 -25 -101 -3 -11 -31
-21 -97 -32 -114 -21 -110 -21 -103 1 17 52 191 817 226 992 41 205 64 290 80
290 5 0 50 -9 100 -21z m-640 -25 c0 -4 -14 -52 -31 -106 -25 -81 -37 -106
-65 -130 -36 -32 -43 -64 -22 -97 9 -15 7 -35 -10 -98 -62 -218 -204 -741
-227 -834 l-27 -105 -150 -27 c-83 -15 -153 -25 -156 -23 -2 3 34 92 81 198
83 188 377 869 474 1098 44 104 51 115 78 121 43 9 55 10 55 3z m184 -42 c-4
-18 -10 -32 -15 -32 -11 0 -11 1 2 39 14 40 21 35 13 -7z m764 -3 c77 -17 101
-27 97 -37 -3 -7 -5 -20 -5 -27 0 -8 -11 -12 -31 -11 l-32 1 -130 -520 c-72
-286 -132 -522 -133 -524 -4 -4 -188 -40 -191 -37 -1 1 27 116 62 256 34 140
100 407 145 593 69 282 86 337 99 333 9 -3 62 -15 119 -27z m-1439 -460 c-245
-569 -409 -942 -419 -952 -4 -5 -24 -12 -44 -17 -29 -6 -36 -5 -36 7 0 49 316
1313 333 1329 4 4 351 81 355 78 2 -1 -83 -201 -189 -445z m1696 401 c148 -32
175 -40 175 -50 0 -5 -13 -7 -28 -4 l-29 6 -91 -324 c-50 -177 -110 -391 -133
-474 l-42 -151 -119 -23 c-65 -12 -122 -20 -125 -16 -3 3 54 244 128 536 108
426 137 529 149 526 8 -3 60 -14 115 -26z m-1955 -59 c0 -5 -5 -22 -11 -38
-26 -69 -251 -957 -310 -1226 -7 -31 -17 -61 -23 -65 -11 -9 -129 -32 -159
-32 -12 0 -3 46 48 243 34 133 111 431 170 662 60 231 110 422 111 424 2 2
137 35 167 40 4 0 7 -3 7 -8z m2287 -17 c62 -14 111 -30 108 -35 -3 -4 -16 -4
-29 1 -19 7 -25 5 -29 -8 -97 -363 -222 -809 -227 -815 -7 -8 -203 -47 -208
-42 -2 2 3 27 11 56 35 132 240 855 244 862 6 10 5 10 130 -19z m2909 -79 c16
-38 56 -111 90 -161 34 -50 76 -117 93 -148 l33 -56 -17 -53 c-80 -244 -242
-599 -325 -708 -60 -80 -69 -86 -190 -131 -52 -20 -104 -39 -114 -44 -17 -6
-18 -4 -13 22 154 745 240 1144 250 1164 24 45 151 200 157 193 4 -5 20 -39
36 -78z m-4066 65 c0 -38 -232 -1066 -244 -1077 -7 -7 -98 -24 -103 -19 -2 2
32 181 76 397 44 217 90 446 102 510 l23 116 65 41 c71 43 81 47 81 32z
m-1400 -30 c0 -6 -74 -298 -165 -648 -91 -351 -165 -643 -165 -649 0 -7 -5
-15 -12 -19 -19 -12 -188 -42 -188 -34 0 4 61 274 135 601 75 327 141 617 146
644 6 28 15 54 19 58 4 5 54 19 111 32 127 28 119 27 119 15z m2858 -24 c79
-19 145 -35 146 -37 2 -2 -1 -19 -6 -37 -8 -30 -12 -33 -36 -28 l-27 6 -90
-305 c-49 -169 -92 -310 -95 -315 -5 -9 -270 -64 -275 -58 -6 8 221 808 230
808 5 0 74 -15 153 -34z m-3188 -46 c0 -8 -112 -504 -259 -1145 l-36 -159 -93
-16 c-87 -15 -92 -15 -92 2 0 9 45 248 101 530 55 282 111 564 123 627 15 75
28 117 37 120 14 4 197 48 212 50 4 1 7 -3 7 -9z m3530 -32 c80 -17 146 -33
148 -34 2 -1 -1 -17 -6 -35 -7 -28 -13 -34 -36 -34 -28 0 -29 -2 -100 -235
l-73 -235 -143 -28 c-78 -15 -145 -26 -147 -24 -7 8 191 657 201 657 6 0 76
-14 156 -32z m-2050 -12 c0 -2 -43 -217 -95 -477 -52 -260 -95 -477 -95 -481
0 -12 -36 -24 -92 -32 l-47 -7 40 153 c46 176 154 566 198 713 19 65 37 106
51 117 21 17 40 23 40 14z m-1924 -617 c-64 -321 -118 -603 -122 -626 -4 -24
-12 -49 -18 -57 -9 -11 -185 -51 -192 -43 -6 5 257 1269 265 1279 9 11 176 46
179 38 2 -4 -49 -270 -112 -591z m4378 537 c81 -19 150 -37 153 -40 11 -10
-13 -31 -37 -31 -23 0 -28 -10 -75 -157 -27 -86 -53 -159 -56 -162 -5 -6 -362
-76 -366 -72 -1 1 20 71 46 156 27 85 63 201 80 256 l31 102 38 -9 c20 -5 104
-24 186 -43z m-4629 -421 c-47 -224 -106 -510 -132 -635 l-46 -227 -86 -15
c-47 -9 -87 -15 -89 -13 -4 4 254 1265 261 1272 7 7 172 38 175 33 1 -4 -36
-190 -83 -415z m4967 344 c73 -17 134 -32 136 -34 2 -2 1 -8 -3 -14 -4 -8 -12
-8 -25 -1 -22 12 -28 0 -69 -122 -12 -37 -27 -70 -32 -73 -12 -8 -261 -57
-265 -52 -8 7 102 326 113 327 6 0 71 -14 145 -31z m-5180 -104 c-14 -66 -73
-352 -131 -635 l-106 -515 -90 -17 c-49 -9 -99 -17 -110 -17 -22 -1 -16 47
128 969 l43 275 145 31 c79 17 145 31 145 30 1 -1 -10 -55 -24 -121z m5543 22
c103 -24 140 -36 140 -47 0 -9 -10 -15 -25 -15 -14 0 -29 -5 -35 -12 -8 -9
-301 -73 -336 -73 -7 0 19 85 50 162 12 32 -7 33 206 -15z m-5909 -14 c-7 -34
-46 -286 -126 -809 -33 -219 -65 -401 -71 -405 -15 -9 -151 -31 -156 -25 -5 5
156 1218 162 1225 5 4 155 38 178 40 15 1 18 -4 13 -26z m61 -30 c-3 -10 -5
-4 -5 12 0 17 2 24 5 18 2 -7 2 -21 0 -30z m-290 -45 c-2 -13 -4 -5 -4 17 -1
22 1 32 4 23 2 -10 2 -28 0 -40z m6340 29 c-29 -9 -43 -5 -33 11 3 5 18 7 33
4 l28 -5 -28 -10z m-6407 -7 c0 -30 -159 -1202 -164 -1207 -6 -7 -227 -45
-232 -40 -4 3 99 893 128 1116 l13 94 120 27 c66 15 123 28 128 29 4 0 7 -8 7
-19z m347 -42 c-3 -7 -5 -2 -5 12 0 14 2 19 5 13 2 -7 2 -19 0 -25z m6569 -14
c-4 -9 -9 -15 -11 -12 -3 3 -3 13 1 22 4 9 9 15 11 12 3 -3 3 -13 -1 -22z
m-7207 -51 c-4 -32 -35 -290 -68 -573 -63 -534 -70 -585 -76 -578 -2 2 21 211
51 463 30 253 62 524 71 603 9 78 20 142 23 142 4 0 3 -26 -1 -57z m348 5 c-2
-13 -4 -5 -4 17 -1 22 1 32 4 23 2 -10 2 -28 0 -40z m-424 -65 c-8 -60 -41
-330 -73 -601 -32 -271 -61 -496 -64 -499 -5 -6 -199 -43 -203 -39 -2 2 73
980 89 1156 l3 35 115 26 c63 15 122 27 131 28 14 1 14 -9 2 -106z m704 60
c-3 -10 -5 -4 -5 12 0 17 2 24 5 18 2 -7 2 -21 0 -30z m-1026 -610 c-26 -326
-51 -596 -56 -600 -4 -5 -5 19 -2 52 4 33 25 299 47 590 39 502 45 563 54 554
2 -2 -17 -271 -43 -596z m736 540 c-3 -10 -5 -2 -5 17 0 19 2 27 5 18 2 -10 2
-26 0 -35z m-767 9 c0 -38 -89 -1155 -92 -1157 -5 -4 -182 -35 -198 -35 -15 0
-2 213 62 1015 l13 160 90 21 c122 30 125 30 125 -4z m1047 6 c-3 -8 -6 -5 -6
6 -1 11 2 17 5 13 3 -3 4 -12 1 -19z m6374 -38 c-21 -48 -37 -65 -26 -30 16
51 25 70 34 70 6 0 2 -18 -8 -40z m-395 -694 c-151 -382 -303 -752 -337 -823
-34 -70 -75 -157 -91 -192 -29 -64 -47 -79 -28 -25 6 16 73 288 150 604 79
328 173 687 218 835 l79 260 139 25 c77 14 140 22 142 18 2 -4 -120 -320 -272
-702z m-7271 662 c-3 -24 -24 -288 -46 -588 -22 -300 -42 -547 -45 -549 -2 -2
-5 -2 -7 0 -7 9 87 1179 95 1179 4 0 5 -19 3 -42z m1282 -5 c-3 -10 -5 -2 -5
17 0 19 2 27 5 18 2 -10 2 -26 0 -35z m-308 -222 c-18 -138 -35 -249 -37 -246
-3 2 10 117 29 254 18 138 35 249 37 246 3 -2 -10 -117 -29 -254z m-1049 237
c1 -27 -84 -1153 -87 -1157 -4 -6 -184 -40 -213 -40 l-26 -1 48 553 c27 303
50 566 53 583 5 30 8 32 98 51 114 25 127 26 127 11z m7825 -468 c-53 -250
-98 -477 -101 -505 -6 -68 -231 -1096 -241 -1105 -9 -8 -364 -52 -371 -45 -3
3 141 507 291 1017 24 80 93 234 272 607 132 274 241 496 243 492 1 -3 -41
-211 -93 -461z m-8125 -146 c-47 -535 -57 -631 -59 -559 -1 35 87 1055 95
1104 18 107 8 -37 -36 -545z m7435 274 c-49 -208 -124 -476 -239 -853 -92
-302 -169 -551 -170 -553 -2 -1 -47 14 -99 35 -72 28 -95 42 -92 53 3 8 91
364 195 790 105 426 193 776 194 777 4 4 244 50 267 52 13 1 3 -52 -56 -301z
m-5788 270 c-3 -8 -6 -5 -6 6 -1 11 2 17 5 13 3 -3 4 -12 1 -19z m-1673 -20
c-2 -18 -22 -242 -44 -498 -22 -256 -43 -488 -46 -517 l-6 -52 -104 72 -104
71 0 447 0 446 138 31 c179 39 172 39 166 0z m1663 -45 c-3 -10 -5 -4 -5 12 0
17 2 24 5 18 2 -7 2 -21 0 -30z m5473 23 c0 -3 -115 -332 -255 -731 -140 -400
-255 -729 -255 -730 0 -2 -22 5 -50 17 -27 11 -50 25 -50 30 0 5 27 123 61
261 33 139 96 403 140 587 95 401 131 518 162 525 31 8 219 43 235 44 6 1 12
-1 12 -3z m-7470 -447 c0 -284 -3 -428 -10 -424 -6 4 -10 158 -10 431 0 276 3
424 10 424 7 0 10 -150 10 -431z m-80 16 l0 -395 -118 81 -119 81 -6 187 c-4
102 -7 232 -7 288 l0 102 78 16 c42 9 91 21 107 25 71 19 65 54 65 -385z
m2067 343 c-3 -7 -5 -2 -5 12 0 14 2 19 5 13 2 -7 2 -19 0 -25z m5103 18 c0
-42 -86 -327 -227 -751 -96 -291 -176 -531 -177 -532 0 0 -41 16 -91 37 -72
30 -90 41 -88 56 1 11 50 235 108 499 58 264 113 514 122 555 8 41 17 77 19
79 4 4 287 58 317 60 9 0 17 -1 17 -3z m-7447 -183 c10 -222 9 -389 -2 -377
-11 12 -24 534 -13 534 5 0 12 -71 15 -157z m-80 15 c4 -66 7 -172 7 -234 l0
-113 -145 105 -145 106 0 102 0 102 123 26 c67 14 129 26 138 27 13 1 17 -18
22 -121z m2414 75 c-3 -10 -5 -2 -5 17 0 19 2 27 5 18 2 -10 2 -26 0 -35z
m4679 0 c-24 -85 -319 -1039 -322 -1042 -2 -2 -40 11 -84 29 -71 29 -81 36
-77 54 3 12 54 226 113 477 l108 456 106 21 c140 26 163 27 156 5z m-7409
-146 c-2 -23 -3 -1 -3 48 0 50 1 68 3 42 2 -26 2 -67 0 -90z m-67 63 c0 -27
-3 -50 -6 -50 -5 0 -68 46 -98 71 -4 4 11 12 35 17 70 16 69 17 69 -38z m2787
18 c-3 -7 -5 -2 -5 12 0 14 2 19 5 13 2 -7 2 -19 0 -25z m4188 -418 c-71 -236
-134 -430 -139 -430 -6 0 -54 18 -106 40 -75 31 -94 43 -92 57 2 10 44 167 94
348 50 182 93 340 96 352 3 19 16 24 101 38 53 10 112 21 131 25 19 3 37 5 39
4 2 -2 -54 -197 -124 -434z m-4198 353 c-3 -10 -5 -2 -5 17 0 19 2 27 5 18 2
-10 2 -26 0 -35z m-3037 -598 c0 -419 -3 -595 -11 -595 -7 0 -10 165 -7 565 2
447 0 565 -9 565 -8 0 -13 15 -13 40 0 38 2 40 20 30 20 -11 20 -21 20 -605z
m6960 598 c0 -10 -142 -667 -144 -670 -6 -7 -186 73 -186 82 0 6 36 136 79
290 l79 280 58 11 c73 14 114 16 114 7z m-6872 -68 l49 -35 6 -521 c4 -287 5
-525 2 -527 -3 -3 -7 -3 -9 -1 -2 2 -7 239 -11 527 l-8 522 -30 0 -29 0 7
-534 7 -533 -21 -6 -21 -5 0 574 c0 316 2 574 5 574 3 0 27 -16 53 -35z m2939
3 c-3 -7 -5 -2 -5 12 0 14 2 19 5 13 2 -7 2 -19 0 -25z m3667 10 c-4 -13 -37
-130 -74 -261 -37 -131 -70 -240 -74 -244 -19 -19 -13 27 29 239 26 128 49
243 52 255 3 14 14 23 31 26 15 2 31 5 35 6 5 0 5 -9 1 -21z m-170 -220 c-24
-116 -45 -222 -48 -234 l-6 -23 -53 21 c-28 12 -55 24 -58 27 -4 3 16 96 45
206 l51 200 35 6 c85 15 81 35 34 -203z m-3507 145 c-3 -10 -5 -2 -5 17 0 19
2 27 5 18 2 -10 2 -26 0 -35z m-270 -10 c-3 -10 -5 -2 -5 17 0 19 2 27 5 18 2
-10 2 -26 0 -35z m3573 -124 c-22 -90 -43 -170 -45 -176 -3 -9 -25 -4 -77 18
-40 17 -76 34 -80 38 -4 3 7 62 25 131 l32 125 90 16 c50 8 91 15 93 14 2 -2
-15 -76 -38 -166z m-6033 57 c16 -15 30 -916 14 -916 -8 0 -11 71 -11 243 0
133 -3 320 -7 415 l-6 173 -26 -3 -26 -3 0 -420 c0 -419 0 -420 -21 -423 -19
-3 -21 3 -27 80 -4 46 -7 276 -7 511 l0 429 53 -38 c28 -20 57 -42 64 -48z
m5767 -27 c-21 -129 -13 -122 -102 -87 -42 17 -81 34 -85 38 -4 4 -3 28 4 54
8 34 17 47 33 51 79 17 114 23 137 24 l26 1 -13 -81z m-3317 19 c-2 -13 -4 -5
-4 17 -1 22 1 32 4 23 2 -10 2 -28 0 -40z m270 20 c-3 -7 -5 -2 -5 12 0 14 2
19 5 13 2 -7 2 -19 0 -25z m2782 -15 c0 -5 -3 -15 -7 -24 -6 -14 -10 -14 -42
-1 -35 15 -35 15 -10 23 34 10 60 11 59 2z m-2792 -50 c-3 -10 -5 -4 -5 12 0
17 2 24 5 18 2 -7 2 -21 0 -30z m-2555 -438 c2 -214 2 -392 1 -394 -12 -18
-16 52 -20 368 l-6 361 -30 0 -30 0 4 -372 c3 -263 1 -372 -7 -375 -14 -5 -24
230 -24 594 l0 282 54 -37 54 -37 4 -390z m2285 408 c-3 -10 -5 -2 -5 17 0 19
2 27 5 18 2 -10 2 -26 0 -35z m2810 21 c24 -9 43 -20 43 -25 0 -9 -152 -731
-280 -1334 -45 -209 -88 -416 -97 -460 -9 -44 -19 -83 -22 -86 -3 -4 -34 -10
-69 -14 -59 -7 -64 -6 -69 14 -3 12 -13 21 -23 21 -12 0 -17 6 -14 18 2 9 27
123 55 252 84 390 337 1441 385 1602 4 14 12 19 44 27 2 0 24 -6 47 -15z
m-2550 -56 c-3 -7 -5 -2 -5 12 0 14 2 19 5 13 2 -7 2 -19 0 -25z m2218 -217
c-33 -132 -61 -238 -63 -236 -2 1 8 100 22 220 14 119 26 223 26 230 0 14 19
22 55 24 19 1 17 -12 -40 -238z m-2488 177 c-2 -13 -4 -5 -4 17 -1 22 1 32 4
23 2 -10 2 -28 0 -40z m2413 34 c0 -8 -35 -320 -85 -752 -19 -159 -42 -293
-92 -515 -36 -165 -67 -301 -68 -302 -2 -3 -329 -53 -330 -50 -1 1 25 237 57
523 l58 521 120 269 119 269 103 21 c127 27 118 26 118 16z m619 -27 c2 -3
-44 -195 -102 -427 -59 -233 -104 -405 -102 -383 3 22 32 219 65 437 33 219
60 400 60 403 0 5 70 -22 79 -30z m-5238 -1 c19 -14 40 -29 47 -33 9 -5 15
-88 21 -337 5 -181 6 -333 2 -337 -11 -11 -21 157 -21 353 0 91 -3 188 -6 216
-6 48 -7 50 -34 46 -29 -4 -29 -4 -25 -71 3 -36 7 -177 9 -313 5 -242 5 -248
-14 -248 -19 0 -20 8 -20 278 0 152 -3 321 -7 375 -4 59 -2 97 4 97 5 0 25
-12 44 -26z m2466 -41 c-3 -10 -5 -2 -5 17 0 19 2 27 5 18 2 -10 2 -26 0 -35z
m5328 -384 c-58 -233 -108 -430 -110 -437 -4 -10 -12 -9 -42 3 -20 9 -38 17
-40 19 -2 2 57 176 130 387 74 211 140 401 147 422 6 21 14 36 16 34 3 -2 -43
-195 -101 -428z m-5598 344 c-3 -10 -5 -2 -5 17 0 19 2 27 5 18 2 -10 2 -26 0
-35z m3225 9 c38 -15 68 -32 68 -38 0 -7 -38 -169 -86 -360 -92 -375 -157
-644 -254 -1038 -33 -138 -63 -252 -66 -255 -6 -6 -188 -30 -193 -25 -2 2 94
398 214 879 187 751 220 875 234 870 9 -3 46 -18 83 -33z m-1275 -32 c-3 -27
-13 -62 -22 -77 -9 -15 -14 -20 -11 -11 3 9 11 44 18 78 15 73 23 79 15 10z
m-3997 -21 c0 -14 7 -19 30 -19 l30 0 0 -73 c0 -41 3 -162 7 -270 4 -147 3
-197 -5 -197 -9 0 -12 34 -12 113 0 61 -3 176 -7 255 l-6 142 -28 0 -29 0 7
-258 c6 -237 5 -259 -11 -265 -10 -4 -18 -1 -21 6 -2 6 -6 151 -10 321 l-6
308 30 -22 c17 -12 31 -30 31 -41z m2307 29 c-3 -7 -5 -2 -5 12 0 14 2 19 5
13 2 -7 2 -19 0 -25z m1593 15 c0 -5 -27 -127 -61 -273 -64 -282 -64 -283
-269 -732 -30 -67 -42 -84 -34 -50 2 9 13 127 24 262 21 240 22 250 89 505
l67 260 80 16 c95 20 104 21 104 12z m-1869 -104 l-11 -34 5 34 c3 18 6 45 6
60 l2 26 4 -26 c2 -15 -1 -42 -6 -60z m266 29 c-3 -7 -5 -2 -5 12 0 14 2 19 5
13 2 -7 2 -19 0 -25z m1249 -164 c-16 -174 -19 -189 -157 -723 -77 -301 -147
-569 -155 -598 l-15 -51 -50 -7 c-28 -4 -52 -5 -54 -4 -4 5 50 280 115 583
104 489 200 922 208 941 6 13 25 22 63 30 30 6 55 10 57 9 2 -1 -4 -82 -12
-180z m1967 151 c42 -17 67 -33 67 -43 0 -8 -36 -155 -79 -326 -44 -171 -125
-491 -180 -711 -56 -220 -106 -419 -112 -442 -8 -32 -17 -43 -30 -43 -15 0
-18 5 -14 23 8 34 110 674 190 1192 44 288 65 387 79 382 6 -3 41 -17 79 -32z
m-5335 -64 c62 -45 75 -61 47 -61 -12 0 -15 -29 -17 -182 l-3 -183 -48 -9
c-26 -4 -51 -6 -54 -2 -4 3 -9 117 -11 253 -4 207 -3 245 9 238 8 -5 42 -29
77 -54z m3110 -213 c-57 -258 -206 -946 -228 -1061 -7 -32 -13 -57 -15 -55 -1
2 3 89 11 193 8 105 25 359 39 565 16 246 31 411 45 479 11 58 22 107 24 108
5 5 136 31 162 32 20 1 19 -8 -38 -261z m-223 200 c-9 -27 -194 -1036 -270
-1475 -6 -35 -1 -33 -130 -52 -33 -5 -62 -8 -63 -6 -12 11 229 1378 264 1495
3 11 31 21 86 32 107 20 118 21 113 6z m2683 -19 c36 -16 42 -22 37 -41 -3
-13 -48 -234 -100 -493 -82 -403 -186 -834 -214 -885 -5 -10 -37 -19 -92 -26
-46 -6 -85 -10 -87 -9 -1 1 81 333 183 737 102 404 185 738 185 742 0 9 27 1
88 -25z m-2978 -36 c0 -3 -31 -169 -70 -367 -38 -199 -76 -401 -84 -450 -18
-104 -28 -124 -21 -40 7 68 45 768 45 813 0 27 4 31 43 39 52 12 87 14 87 5z
m-2447 -36 c9 -8 17 -19 17 -26 0 -6 8 -11 18 -11 9 0 25 -7 35 -14 14 -11 17
-30 17 -124 0 -124 8 -113 -92 -127 l-48 -7 0 171 c0 187 -2 181 53 138z
m5517 -42 c-19 -74 -26 -71 -9 5 12 56 18 74 24 69 2 -3 -4 -36 -15 -74z m715
4 c-20 -82 -24 -93 -31 -87 -3 3 5 40 17 82 27 91 37 95 14 5z m-3939 19 c-3
-18 -8 -85 -11 -148 -29 -579 -56 -1010 -65 -1031 -10 -23 -10 -23 -6 6 3 17
8 86 11 155 3 69 17 325 30 570 14 245 25 453 25 463 0 9 5 17 10 17 7 0 9
-13 6 -32z m-119 -10 c-22 -88 -181 -952 -231 -1252 -19 -114 -37 -211 -40
-213 -8 -8 -90 -22 -98 -17 -18 11 -7 244 22 466 46 360 138 989 145 996 6 7
155 39 189 41 14 1 17 -4 13 -21z m3534 -14 l91 -37 -6 -32 c-4 -17 -37 -144
-75 -281 -38 -137 -106 -384 -151 -549 -45 -165 -87 -318 -94 -340 l-13 -40
-89 -12 c-135 -17 -128 -19 -120 25 5 32 59 226 314 1134 26 93 48 168 49 168
2 0 44 -16 94 -36z m-3774 -51 c-3 -10 -5 -4 -5 12 0 17 2 24 5 18 2 -7 2 -21
0 -30z m-67 10 c-1 -10 -16 -117 -34 -238 l-34 -220 -1 180 c-1 99 -4 203 -7
232 -6 44 -4 52 12 56 42 11 64 7 64 -10z m-100 -370 c0 -203 -4 -373 -8 -379
-4 -7 -9 159 -11 367 -2 276 0 379 8 379 8 0 11 -102 11 -367z m-105 257 c-13
-79 -14 -80 -9 -20 6 74 16 129 20 115 2 -6 -3 -48 -11 -95z m-1338 -46 c-3
-3 -162 -34 -174 -34 -2 0 -3 38 -3 85 l0 85 90 -66 c50 -37 89 -68 87 -70z
m1277 89 c-3 -21 -47 -347 -98 -726 -51 -378 -95 -689 -97 -691 -2 -2 -25 -7
-51 -10 l-48 -7 -2 353 c-2 194 -2 389 -1 433 2 76 61 636 67 643 5 4 187 40
214 41 20 1 22 -2 16 -36z m4387 -4 c54 -23 99 -44 99 -46 0 -5 -42 -147 -241
-812 -43 -145 -80 -266 -82 -267 -1 -2 -37 -6 -79 -10 l-77 -7 10 39 c5 22 49
227 99 457 105 487 153 687 166 687 3 0 50 -19 105 -41z m-4064 -1 c-3 -7 -5
-2 -5 12 0 14 2 19 5 13 2 -7 2 -19 0 -25z m-603 -190 c-10 -95 -20 -161 -22
-146 -2 15 4 88 12 162 9 74 16 143 16 152 0 10 3 14 7 11 3 -4 -2 -84 -13
-179z m5213 165 c-3 -10 -8 -31 -12 -47 -3 -15 -8 -26 -11 -23 -6 6 14 87 22
87 3 0 3 -8 1 -17z m-5268 -25 c0 -18 -4 -55 -9 -83 -7 -47 -7 -45 -9 33 0 49
3 82 9 82 6 0 10 -15 9 -32z m648 -25 c-3 -10 -5 -2 -5 17 0 19 2 27 5 18 2
-10 2 -26 0 -35z m-723 -285 c7 -321 7 -325 -28 -673 -20 -192 -36 -364 -36
-382 0 -17 -4 -34 -9 -37 -12 -8 -152 -28 -157 -23 -5 5 105 1410 111 1416 6
5 67 19 91 20 21 1 21 -2 28 -321z m-199 -328 c-25 -316 -48 -615 -52 -665 -3
-49 -10 -99 -14 -110 -5 -11 -6 10 -3 50 5 64 102 1301 106 1342 0 10 3 4 5
-12 2 -17 -17 -290 -42 -605z m-25 598 c-1 -51 -50 -632 -55 -636 -3 -3 -5 85
-5 195 0 110 -3 254 -6 320 -7 113 -6 121 12 126 35 9 54 7 54 -5z m5217 5
c-2 -5 -58 -233 -123 -508 -65 -275 -123 -503 -128 -507 -19 -13 -79 -9 -74 5
2 6 71 238 153 515 101 337 154 502 163 502 7 0 11 -3 9 -7z m-4488 -732 c1
-287 -6 -447 -24 -537 -4 -18 -16 -23 -81 -33 -41 -7 -77 -11 -80 -9 -2 3 36
298 84 656 l87 652 6 -198 c4 -108 7 -347 8 -531z m5196 649 c-9 -38 -22 -70
-27 -70 -6 0 -7 8 -3 18 3 9 13 43 22 75 23 80 29 63 8 -23z m-6018 58 c0 -7
4 -250 8 -539 6 -381 5 -531 -3 -545 -9 -14 -11 34 -12 201 0 121 -3 372 -7
558 -4 221 -3 337 4 337 5 0 10 -6 10 -12z m1030 -25 c-3 -10 -5 -4 -5 12 0
17 2 24 5 18 2 -7 2 -21 0 -30z m-1107 -50 c0 -43 5 -354 11 -691 7 -337 9
-615 5 -619 -6 -6 -158 -33 -163 -29 -5 4 104 1394 111 1404 4 7 14 12 22 12
11 0 14 -17 14 -77z m5544 42 c34 -15 56 -31 54 -38 -3 -7 -65 -208 -138 -447
-73 -239 -136 -439 -140 -443 -9 -11 -110 -26 -110 -16 0 5 49 217 110 471 60
255 112 474 115 486 7 28 20 26 109 -13z m-5665 -676 c-29 -382 -56 -698 -61
-704 -6 -6 -7 11 -4 45 3 30 27 334 51 675 25 341 48 635 51 654 18 113 9 -55
-37 -670z m968 644 c-3 -10 -5 -2 -5 17 0 19 2 27 5 18 2 -10 2 -26 0 -35z
m-1341 28 c-3 -4 -33 -11 -66 -15 -34 -4 -68 -10 -76 -13 -8 -3 -14 -1 -14 5
0 5 26 14 58 20 76 13 104 14 98 3z m348 -38 c-3 -27 -27 -340 -54 -697 -36
-488 -52 -651 -62 -657 -7 -5 -23 -9 -35 -9 l-23 0 0 696 c0 382 3 693 8 690
4 -2 34 2 67 9 104 23 105 22 99 -32z m1243 -25 c-2 -13 -4 -5 -4 17 -1 22 1
32 4 23 2 -10 2 -28 0 -40z m-1807 33 c0 -10 -129 -35 -138 -27 -7 7 12 13 78
24 30 5 56 10 58 11 1 0 2 -3 2 -8z m1547 -73 c-2 -13 -4 -5 -4 17 -1 22 1 32
4 23 2 -10 2 -28 0 -40z m4853 40 c0 -7 -41 -201 -92 -430 l-93 -416 -43 -7
c-24 -4 -46 -4 -48 -2 -7 7 259 867 268 867 5 0 8 -6 8 -12z m1439 -155 c-28
-93 -57 -192 -65 -221 -13 -43 -19 -52 -32 -47 -10 4 -25 10 -34 12 -10 3 -18
9 -18 13 0 5 39 88 86 187 47 98 90 188 95 201 5 12 10 22 13 22 2 0 -18 -75
-45 -167z m-8049 148 c-25 -15 -100 -24 -100 -12 0 9 29 14 95 19 16 1 17 0 5
-7z m419 -178 c-4 -98 -12 -401 -19 -673 -7 -272 -14 -497 -16 -498 -1 -2 -23
10 -48 28 l-46 31 -1 87 c0 48 -4 332 -8 632 -4 300 -6 547 -4 549 5 6 74 19
113 20 l35 1 -6 -177z m-549 157 c0 -5 -4 -10 -10 -10 -5 0 -10 5 -10 10 0 6
5 10 10 10 6 0 10 -4 10 -10z m2137 -37 c-3 -10 -5 -4 -5 12 0 17 2 24 5 18 2
-7 2 -21 0 -30z m1674 -396 c-26 -234 -49 -428 -52 -431 -7 -7 -189 -33 -189
-27 0 3 25 119 56 256 55 242 59 256 143 442 47 105 87 191 88 190 1 -2 -19
-195 -46 -430z m3099 399 c46 -19 86 -38 87 -42 2 -5 -50 -169 -115 -364
l-119 -355 -54 -6 c-30 -3 -56 -5 -58 -3 -2 2 171 804 175 804 0 0 38 -15 84
-34z m-6993 18 c-3 -3 -12 -4 -19 -1 -8 3 -5 6 6 6 11 1 17 -2 13 -5z m427
-96 c3 -57 8 -329 11 -606 l5 -503 -60 42 c-33 23 -64 47 -69 53 -5 6 -12 171
-15 366 -4 195 -9 439 -12 542 l-5 186 53 10 c93 17 85 24 92 -90z m2077 -427
c-16 -287 -31 -524 -33 -526 -6 -7 -123 -23 -128 -19 -5 6 76 501 129 784 22
113 42 224 46 248 4 24 9 42 11 40 2 -2 -10 -239 -25 -527z m-2641 499 c0 -5
-10 -10 -22 -10 -19 0 -20 2 -8 10 19 13 30 13 30 0z m-60 -10 c0 -5 -4 -10
-10 -10 -5 0 -10 5 -10 10 0 6 5 10 10 10 6 0 10 -4 10 -10z m424 -142 c9
-250 17 -878 11 -878 -3 0 -27 16 -54 36 l-49 37 -6 166 c-3 91 -9 302 -12
467 l-6 301 48 11 c27 5 52 10 55 11 4 0 9 -68 13 -151z m1733 105 c-3 -10 -5
-2 -5 17 0 19 2 27 5 18 2 -10 2 -26 0 -35z m-2237 23 c0 -2 -7 -6 -15 -10 -8
-3 -15 -1 -15 4 0 6 7 10 15 10 8 0 15 -2 15 -4z m2487 -48 c-2 -13 -4 -5 -4
17 -1 22 1 32 4 23 2 -10 2 -28 0 -40z m-2123 -100 c13 -322 17 -763 8 -753
-7 6 -13 140 -16 340 -4 182 -9 381 -12 443 -3 69 -2 112 4 112 6 0 12 -61 16
-142z m-80 60 c3 -40 8 -228 11 -418 6 -324 5 -344 -11 -328 -15 14 -18 54
-25 295 -12 438 -11 523 5 523 11 0 16 -19 20 -72z m-439 52 c-28 -12 -37 -12
-30 0 3 6 16 10 28 9 21 0 21 -1 2 -9z m379 -182 c3 -106 8 -280 11 -385 4
-118 2 -193 -3 -193 -6 0 -12 76 -16 173 -15 440 -17 597 -8 597 6 0 12 -82
16 -192z m-444 172 c0 -5 -5 -10 -11 -10 -5 0 -7 5 -4 10 3 6 8 10 11 10 2 0
4 -4 4 -10z m7674 1 c10 -15 -146 -645 -162 -658 -9 -7 -31 -13 -50 -13 -23 0
-33 4 -30 13 3 6 54 159 114 340 60 180 112 327 116 327 4 0 9 -4 12 -9z
m-7310 -133 c3 -73 8 -229 10 -347 l5 -213 -22 15 c-22 14 -22 16 -25 346 -2
279 0 331 12 331 11 0 15 -28 20 -132z m2083 80 c-2 -13 -4 -5 -4 17 -1 22 1
32 4 23 2 -10 2 -28 0 -40z m-2527 32 c0 -5 -10 -10 -22 -10 -19 0 -20 2 -8
10 19 13 30 13 30 0z m382 -297 c2 -170 2 -310 1 -312 -11 -16 -15 42 -20 313
-4 213 -3 306 4 306 8 0 12 -100 15 -307z m-79 25 c3 -150 3 -275 1 -277 -2
-3 -10 1 -17 8 -9 9 -13 81 -16 262 -1 137 0 256 3 264 17 45 23 -12 29 -257z
m-54 -117 c1 -73 -3 -121 -8 -115 -10 10 -22 480 -12 489 7 8 18 -198 20 -374z
m2528 342 c-3 -10 -5 -4 -5 12 0 17 2 24 5 18 2 -7 2 -21 0 -30z m5116 11 c18
-9 33 -17 35 -19 3 -2 -195 -565 -201 -572 -3 -3 -12 -3 -20 -1 -11 2 1 63 59
303 40 165 73 301 73 303 2 6 25 0 54 -14z m-7729 -31 c3 -21 6 -116 6 -212
l0 -175 -30 29 -30 29 0 177 c0 179 1 186 36 188 6 1 14 -16 18 -36z m-84
-144 c0 -93 -4 -158 -9 -155 -13 9 -14 316 -1 316 6 0 10 -56 10 -161z m-77
-98 c-2 -2 -12 4 -23 14 -18 16 -20 31 -20 121 0 90 2 103 18 106 15 3 18 -9
22 -117 3 -66 4 -122 3 -124z m2514 202 c-3 -10 -5 -2 -5 17 0 19 2 27 5 18 2
-10 2 -26 0 -35z m250 -15 c-2 -13 -4 -5 -4 17 -1 22 1 32 4 23 2 -10 2 -28 0
-40z m-2837 -44 c0 -54 -4 -83 -10 -79 -5 3 -10 42 -10 86 0 46 4 79 10 79 6
0 10 -35 10 -86z m8159 31 c0 -11 -26 -119 -57 -240 l-57 -220 -73 -9 c-40 -5
-75 -6 -78 -3 -5 5 36 125 168 499 l9 27 45 -17 c33 -12 44 -21 43 -37z
m-2702 13 c-3 -7 -5 -2 -5 12 0 14 2 19 5 13 2 -7 2 -19 0 -25z m-1796 -351
c-28 -426 -22 -394 -71 -399 -31 -3 -40 0 -40 12 0 8 20 132 45 275 25 143 53
306 62 363 10 56 20 97 21 92 2 -6 -6 -160 -17 -343z m2165 -3 c-71 -443 -61
-401 -97 -409 -17 -4 -33 -5 -35 -2 -3 3 29 144 71 314 41 169 83 341 92 381
33 148 23 54 -31 -284z m-3249 294 c-2 -13 -4 -5 -4 17 -1 22 1 32 4 23 2 -10
2 -28 0 -40z m-2790 20 c-3 -8 -6 -5 -6 6 -1 11 2 17 5 13 3 -3 4 -12 1 -19z
m4348 -144 l-15 -159 -62 -142 c-34 -78 -64 -140 -66 -138 -2 2 28 124 66 272
39 147 73 283 77 301 14 68 14 22 0 -134z m1276 -111 c-51 -322 -98 -523 -122
-523 -15 0 -16 5 -9 33 10 37 133 611 151 707 7 35 14 59 16 53 2 -6 -14 -128
-36 -270z m-2584 230 c-3 -10 -5 -4 -5 12 0 17 2 24 5 18 2 -7 2 -21 0 -30z
m5514 -2 c46 -19 86 -36 88 -38 3 -2 -88 -321 -95 -331 -4 -6 -194 -28 -194
-22 -1 17 106 430 110 428 3 -2 44 -18 91 -37z m-6090 -107 c-6 -50 -9 -58
-10 -29 -1 45 11 125 16 109 2 -5 -1 -41 -6 -80z m316 39 c-3 -10 -5 -2 -5 17
0 19 2 27 5 18 2 -10 2 -26 0 -35z m250 -5 c-2 -13 -4 -5 -4 17 -1 22 1 32 4
23 2 -10 2 -28 0 -40z m-277 -202 c-13 -97 -26 -174 -28 -171 -3 2 6 83 18
180 13 96 26 173 28 170 3 -2 -6 -83 -18 -179z m267 127 c-3 -10 -5 -2 -5 17
0 19 2 27 5 18 2 -10 2 -26 0 -35z m-2807 1 c0 -21 -4 -33 -10 -29 -5 3 -10
19 -10 36 0 16 5 29 10 29 6 0 10 -16 10 -36z m78 -64 c3 -33 3 -33 -20 -18
-15 10 -24 27 -26 48 -3 33 -3 33 20 18 15 -10 24 -27 26 -48z m8694 34 l26
-14 -18 -61 c-10 -34 -21 -63 -23 -65 -4 -5 -131 -23 -135 -19 -1 1 17 43 40
93 46 98 47 98 110 66z m-5975 -46 c-2 -13 -4 -5 -4 17 -1 22 1 32 4 23 2 -10
2 -28 0 -40z m-2645 -48 c3 -16 1 -30 -4 -30 -4 0 -8 14 -8 30 0 17 2 30 4 30
2 0 6 -13 8 -30z m-147 -456 c6 -424 5 -499 -9 -483 -7 9 -15 959 -7 959 4 0
11 -214 16 -476z m2782 439 c-3 -10 -5 -4 -5 12 0 17 2 24 5 18 2 -7 2 -21 0
-30z m-2547 -54 c0 -21 -4 -28 -12 -23 -33 18 -48 40 -48 66 l0 29 30 -21 c22
-16 30 -29 30 -51z m-159 -419 c4 -435 4 -435 -17 -438 -20 -3 -21 2 -27 170
-4 95 -7 303 -7 463 l0 290 24 -25 24 -25 3 -435z m2178 148 l-2 -273 -9 160
c-9 140 -3 385 8 385 2 0 3 -123 3 -272z m-2096 -170 c6 -416 -5 -545 -16
-195 -10 289 -9 613 2 602 5 -6 11 -189 14 -407z m157 382 c0 -16 -4 -30 -10
-30 -5 0 -10 14 -10 30 0 17 5 30 10 30 6 0 10 -13 10 -30z m8803 -337 c-180
-802 -376 -1628 -389 -1642 -4 -4 -449 -40 -506 -41 l-26 0 34 108 c103 320
319 1024 439 1427 75 253 140 463 143 467 7 7 290 44 353 47 l35 1 -83 -367z
m-8743 285 c0 -26 -2 -29 -15 -18 -8 7 -15 26 -15 42 0 26 2 29 15 18 8 -7 15
-26 15 -42z m-161 18 c22 -23 23 -29 28 -378 l6 -355 -24 -6 c-13 -3 -25 -4
-27 -2 -2 2 -6 79 -8 172 -10 442 -11 593 -5 593 4 0 18 -11 30 -24z m8508 2
c-2 -7 -64 -213 -137 -458 -145 -488 -367 -1213 -432 -1411 l-42 -126 -79 -7
c-44 -4 -82 -5 -84 -2 -3 3 18 78 45 168 95 307 304 1064 393 1421 14 58 49
144 99 247 l78 158 74 10 c40 5 77 10 82 11 4 0 6 -5 3 -11z m-6222 -103 c-4
-36 -10 -64 -12 -61 -3 2 -2 34 2 71 4 36 10 64 12 61 3 -2 2 -34 -2 -71z
m762 43 c-3 -7 -5 -2 -5 12 0 14 2 19 5 13 2 -7 2 -19 0 -25z m-2807 -19 c0
-16 -4 -29 -10 -29 -5 0 -10 16 -10 36 0 21 4 33 10 29 6 -3 10 -19 10 -36z
m3758 -28 c-7 -32 -17 -51 -26 -51 -7 0 -12 3 -10 8 2 4 12 29 22 55 24 60 30
55 14 -12z m4079 47 c-2 -7 -27 -87 -55 -178 -43 -140 -76 -218 -217 -510 -92
-190 -171 -356 -176 -369 -16 -41 -19 -17 -4 33 8 27 70 263 137 525 67 262
125 480 130 486 9 10 79 22 147 24 31 1 42 -3 38 -11z m-7970 -346 c5 -242 3
-322 -5 -322 -9 0 -12 55 -12 203 0 111 -3 261 -6 332 -5 98 -4 127 5 119 8
-7 13 -110 18 -332z m185 311 c10 -9 18 -30 18 -46 l0 -30 -25 23 c-14 13 -25
34 -25 47 0 27 7 29 32 6z m2239 -43 c-5 -25 -9 -35 -10 -24 -1 28 11 92 16
79 1 -6 -1 -30 -6 -55z m5265 43 c-3 -10 -64 -247 -136 -528 -230 -893 -237
-917 -329 -1107 -44 -93 -83 -168 -86 -168 -5 0 -146 78 -152 84 -1 1 38 157
86 347 78 303 111 407 266 850 97 277 180 508 185 512 8 9 90 23 143 26 23 1
27 -3 23 -16z m-6694 -308 l-9 -190 -1 206 c-1 113 1 228 6 255 l7 49 3 -65
c1 -36 -2 -150 -6 -255z m1935 278 c-3 -10 -5 -4 -5 12 0 17 2 24 5 18 2 -7 2
-21 0 -30z m-2872 -300 c6 -250 4 -293 -8 -293 -11 0 -15 39 -20 218 -11 342
-10 399 7 382 11 -12 15 -79 21 -307z m7373 305 c-3 -7 -17 -50 -33 -96 -15
-46 -29 -82 -31 -80 -3 3 29 142 41 176 2 6 9 12 16 12 6 0 9 -6 7 -12z m-113
-21 c-3 -7 -61 -241 -130 -522 -109 -443 -138 -546 -221 -785 -53 -151 -100
-279 -104 -284 -5 -4 -40 11 -79 34 -52 31 -70 47 -66 59 3 9 117 351 253 761
l248 745 45 5 c51 6 60 4 54 -13z m-2778 -9 c-3 -13 -14 -64 -23 -115 l-18
-91 -100 -25 c-56 -14 -125 -28 -155 -32 l-54 -7 6 38 c3 22 9 73 13 115 4 43
9 81 13 86 3 6 67 19 141 30 185 28 183 28 177 1z m-1880 -10 c-3 -8 -6 -5 -6
6 -1 11 2 17 5 13 3 -3 4 -12 1 -19z m4399 -205 c-40 -120 -110 -334 -156
-475 -46 -142 -85 -256 -87 -254 -2 2 44 213 103 469 118 511 103 472 181 476
l31 1 -72 -217z m-6776 166 c0 -18 -4 -28 -10 -24 -5 3 -10 20 -10 36 0 18 4
28 10 24 6 -3 10 -20 10 -36z m2637 9 c-3 -7 -5 -2 -5 12 0 14 2 19 5 13 2 -7
2 -19 0 -25z m4008 -10 c-6 -27 -164 -714 -293 -1271 -22 -93 -30 -116 -42
-112 -8 4 -50 27 -93 52 -59 35 -77 49 -72 62 4 9 92 293 196 631 104 338 193
625 199 637 6 16 20 23 47 26 21 2 44 4 51 5 10 2 12 -6 7 -30z m-6791 -250
c3 -142 2 -258 -2 -258 -5 0 -12 75 -15 167 -10 231 -9 369 2 358 5 -6 11
-126 15 -267z m2023 225 c-3 -10 -5 -2 -5 17 0 19 2 27 5 18 2 -10 2 -26 0
-35z m1040 15 c-3 -8 -6 -5 -6 6 -1 11 2 17 5 13 3 -3 4 -12 1 -19z m945 -95
c-8 -65 -15 -119 -16 -120 -4 -5 -219 -33 -223 -29 -2 2 8 57 23 123 l27 120
66 10 c36 6 82 11 101 11 l36 2 -14 -117z m-3804 69 c3 -25 0 -31 -12 -26 -10
4 -16 18 -16 36 0 40 24 32 28 -10z m6321 -214 c-43 -139 -129 -417 -191 -618
-61 -201 -113 -367 -115 -369 -16 -21 4 74 113 529 68 289 134 564 145 612 22
93 24 95 90 97 l36 1 -78 -252z m-6456 145 c4 -37 7 -141 7 -230 l0 -163 -24
0 -24 0 -1 241 c-2 233 -1 240 17 230 15 -8 21 -26 25 -78z m2704 35 c-2 -13
-4 -5 -4 17 -1 22 1 32 4 23 2 -10 2 -28 0 -40z m3648 -5 c-90 -383 -267
-1118 -270 -1121 -3 -4 -79 38 -123 66 -14 9 -15 6 218 787 51 171 98 313 104
317 6 4 27 8 48 8 l36 0 -13 -57z m-2695 43 c0 -14 -52 -232 -57 -236 -6 -6 6
183 14 218 3 13 13 22 24 22 10 0 19 -2 19 -4z m2520 -33 c-9 -31 -132 -443
-234 -787 -36 -120 -67 -221 -69 -223 -2 -2 -14 5 -27 15 l-23 18 16 75 c9 41
55 254 102 474 47 220 90 410 95 422 9 22 21 25 122 31 25 2 26 0 18 -25z
m-4233 -35 c-2 -13 -4 -5 -4 17 -1 22 1 32 4 23 2 -10 2 -28 0 -40z m490 10
c-3 -7 -5 -2 -5 12 0 14 2 19 5 13 2 -7 2 -19 0 -25z m-2217 -9 c0 -17 -4 -28
-10 -24 -5 3 -10 17 -10 31 0 13 5 24 10 24 6 0 10 -14 10 -31z m1431 -89 c-7
-61 -9 -67 -10 -29 -1 53 12 154 16 124 2 -11 -1 -54 -6 -95z m1679 103 c0 -7
-44 -176 -56 -214 -3 -10 -18 -18 -39 -21 l-35 -4 1 46 c0 25 6 76 12 115 11
60 15 70 37 76 35 10 80 11 80 2z m2525 -110 c-18 -65 -70 -253 -115 -418 -45
-165 -83 -306 -85 -312 -4 -13 -135 62 -135 77 0 21 153 736 158 742 7 7 124
25 178 27 l32 1 -33 -117z m-5771 51 c10 -76 7 -344 -4 -344 -6 0 -10 61 -10
164 0 90 -3 178 -6 195 -4 18 -2 31 3 31 6 0 13 -21 17 -46z m234 -3 c29 -22
42 -40 42 -57 0 -13 -2 -24 -5 -24 -3 0 -27 16 -55 36 -41 29 -50 41 -50 66 0
23 3 28 13 21 6 -5 31 -24 55 -42z m2109 17 c-3 -8 -6 -5 -6 6 -1 11 2 17 5
13 3 -3 4 -12 1 -19z m669 -24 c-3 -26 -6 -73 -6 -105 0 -70 -15 -89 -71 -89
l-40 0 7 63 c19 171 16 161 49 168 67 14 68 13 61 -37z m2511 24 c-3 -13 -36
-171 -73 -353 -37 -181 -68 -331 -70 -333 -1 -2 -61 35 -133 82 -117 76 -131
89 -130 113 0 16 17 127 37 248 l38 220 154 21 c85 12 161 22 169 23 9 1 11
-6 8 -21z m-5473 -14 c23 -23 24 -334 1 -334 -12 0 -15 14 -15 63 0 34 -3 113
-7 175 -3 61 -3 112 0 112 3 0 13 -7 21 -16z m1803 -31 c-3 -10 -5 -2 -5 17 0
19 2 27 5 18 2 -10 2 -26 0 -35z m973 34 c0 -11 -31 -221 -33 -223 -1 -1 -46
-9 -99 -16 l-98 -15 1 36 c0 20 3 30 6 24 2 -7 11 -13 18 -13 9 0 12 11 8 38
-2 20 -1 62 4 92 l8 55 70 11 c75 12 115 16 115 11z m2960 -420 c-49 -229 -90
-423 -90 -431 0 -9 -3 -16 -6 -16 -14 0 -44 22 -44 33 0 17 224 837 227 833 2
-2 -37 -190 -87 -419z m-660 387 c0 -15 -54 -348 -66 -406 l-6 -28 -46 32
c-26 17 -48 32 -49 33 -1 0 18 85 43 187 l45 187 32 4 c18 2 35 5 40 5 4 1 7
-5 7 -14z m-2246 -92 c-4 -51 -11 -92 -17 -92 -5 0 -7 14 -4 33 4 17 9 60 13
95 10 93 15 69 8 -36z m2050 -28 c-14 -60 -27 -110 -29 -112 -1 -1 -12 24 -23
55 -24 65 -75 133 -99 133 -9 0 -14 3 -10 6 5 6 179 33 185 29 1 -1 -9 -51
-24 -111z m-2431 -1 c-3 -60 -7 -109 -7 -110 -4 -4 -149 -23 -152 -20 -2 1 2
52 9 112 l12 110 40 6 c22 3 54 7 72 8 l32 1 -6 -107z m-2359 81 c10 -26 7
-254 -3 -254 -6 0 -11 59 -13 135 -3 126 1 157 16 119z m2193 -16 c-3 -8 -6
-5 -6 6 -1 11 2 17 5 13 3 -3 4 -12 1 -19z m1123 -12 c0 -22 -6 -36 -16 -40
-9 -4 -19 -5 -21 -2 -4 4 28 76 34 76 2 0 3 -15 3 -34z m-1193 -8 c-3 -18 -9
-55 -12 -83 -14 -117 -13 -115 -48 -115 l-32 0 0 108 0 107 35 6 c63 11 63 12
57 -23z m-1849 -28 c49 -36 61 -50 62 -73 0 -32 -6 -30 -85 30 -36 28 -51 47
-53 67 -4 34 -2 33 76 -24z m-187 4 c46 -34 49 -38 51 -85 1 -27 2 -57 2 -66
1 -13 -11 -20 -48 -26 -27 -4 -50 -7 -51 -5 -7 8 -16 218 -10 218 4 0 29 -16
56 -36z m1919 -74 c0 -67 -4 -110 -10 -110 -6 0 -10 43 -10 110 0 67 4 110 10
110 6 0 10 -43 10 -110z m174 6 c-4 -47 -11 -86 -16 -86 -5 0 -7 8 -4 18 2 9
8 50 11 90 4 40 9 71 12 69 2 -3 1 -44 -3 -91z m-295 42 c-1 -24 -4 -72 -8
-108 l-6 -65 -85 -11 c-47 -6 -86 -10 -88 -9 -4 3 28 208 33 214 7 6 80 18
123 20 31 1 32 0 31 -41z m1061 7 c0 -19 -4 -35 -8 -35 -4 0 -6 16 -4 35 2 19
6 35 8 35 2 0 4 -16 4 -35z m-1332 -119 c-13 -85 -15 -90 -41 -97 -37 -10 -38
-4 -35 112 l3 94 40 5 c49 6 50 4 33 -114z m79 87 c-3 -10 -5 -4 -5 12 0 17 2
24 5 18 2 -7 2 -21 0 -30z m-177 -94 c0 -59 -4 -99 -10 -99 -6 0 -10 42 -10
106 0 67 4 103 10 99 6 -3 10 -50 10 -106z m-108 -54 l-9 -70 -2 66 c0 36 2
88 7 115 l7 49 3 -45 c1 -25 -1 -76 -6 -115z m-66 89 c-3 -26 -6 -71 -6 -100
0 -59 4 -56 -114 -70 l-58 -7 7 99 c4 55 9 100 10 102 5 5 97 20 134 21 l34 1
-7 -46z m339 -31 c-4 -38 -10 -71 -14 -75 -4 -4 -2 26 3 67 12 93 21 99 11 8z
m-1420 13 l30 -25 -37 -1 c-51 0 -51 0 -55 38 -3 29 -2 32 14 23 10 -5 32 -21
48 -35z m169 2 c-10 -16 -34 -7 -34 12 0 17 3 19 19 8 11 -7 17 -16 15 -20z
m616 -72 c0 -109 4 -106 -116 -106 l-71 0 4 78 c3 42 6 82 7 87 1 6 34 15 72
21 114 19 104 27 104 -80z m-207 -24 c-3 -45 -9 -82 -12 -82 -7 0 -3 136 5
159 10 31 13 0 7 -77z m-73 1 c-5 -75 -6 -78 -30 -78 -24 0 -25 3 -28 69 -3
73 3 86 43 86 19 0 20 -5 15 -77z m3484 48 c17 -19 17 -20 -21 -30 -50 -14
-53 -14 -53 7 0 41 45 55 74 23z m-1409 -1 c-28 -12 -37 -12 -30 0 3 6 16 10
28 9 21 0 21 -1 2 -9z m-65 -10 c0 -5 -12 -10 -27 -10 -22 0 -25 2 -13 10 20
13 40 13 40 0z m-2280 -15 c0 -17 -2 -18 -24 -9 -23 9 -20 24 4 24 11 0 20 -7
20 -15z m2177 -1 c-6 -6 -187 -43 -215 -44 -8 0 -12 6 -10 13 3 7 38 17 84 23
93 13 150 16 141 8z m1418 -4 c3 -6 -1 -7 -9 -4 -18 7 -21 14 -7 14 6 0 13 -4
16 -10z m-3746 -311 l1 -117 -62 -11 c-34 -6 -64 -8 -67 -5 -3 3 -8 99 -9 214
l-4 208 49 7 c26 3 55 7 63 8 17 3 27 -100 29 -304z m2628 305 c-3 -3 -12 -4
-19 -1 -8 3 -5 6 6 6 11 1 17 -2 13 -5z m869 -3 c-7 -10 -96 -34 -103 -27 -3
3 15 10 38 16 24 6 49 13 54 15 16 6 16 5 11 -4z m-3276 -32 c0 -17 -4 -28
-10 -24 -5 3 -10 17 -10 31 0 13 5 24 10 24 6 0 10 -14 10 -31z m3440 16 c32
-16 38 -25 18 -25 -14 0 -68 39 -55 40 4 0 21 -7 37 -15z m-1586 -10 c-4 -8
-8 -15 -10 -15 -2 0 -4 7 -4 15 0 8 4 15 10 15 5 0 7 -7 4 -15z m-2272 -207
c3 -131 1 -215 -5 -219 -11 -8 -88 -21 -92 -17 -2 2 -4 100 -6 218 l-4 215 40
6 c22 3 45 7 51 8 8 1 13 -62 16 -211z m299 185 l39 -28 0 -157 0 -158 -27 -6
c-16 -3 -34 -7 -40 -10 -10 -2 -13 19 -13 85 0 48 -3 136 -7 194 -3 59 -3 107
1 107 4 0 25 -12 47 -27z m1899 13 c0 -16 -12 -21 -75 -31 -22 -3 -48 -8 -57
-11 -13 -4 -18 0 -18 15 0 20 2 21 90 34 50 8 60 7 60 -7z m480 10 c0 -2 -13
-6 -30 -8 -16 -3 -30 -1 -30 4 0 4 14 8 30 8 17 0 30 -2 30 -4z m1513 -17
c-15 -15 -93 -24 -93 -11 0 11 26 18 75 21 21 1 26 -2 18 -10z m-4329 -56 c8
-75 10 -373 2 -380 -12 -12 -15 27 -18 230 -4 201 3 267 16 150z m2156 32 c0
-14 -4 -25 -10 -25 -11 0 -14 33 -3 43 11 11 13 8 13 -18z m527 19 c-9 -10
-247 -52 -247 -44 0 4 48 16 108 27 117 23 149 26 139 17z m1176 -8 c20 -15
16 -20 -23 -29 -32 -8 -95 28 -64 36 36 9 69 6 87 -7z m-3933 -219 c5 -198 1
-243 -21 -219 -4 4 -9 102 -12 219 -3 154 -2 213 7 216 6 2 13 2 16 0 3 -3 7
-100 10 -216z m2150 199 c0 -16 -7 -26 -22 -29 -26 -7 -25 -8 -30 17 -2 14 4
22 22 27 14 4 26 7 28 8 1 1 2 -10 2 -23z m-2208 -213 c3 -210 -3 -272 -16
-152 -9 95 -7 384 3 374 5 -6 11 -106 13 -222z m3058 202 c-13 -14 -28 -25
-34 -25 -6 0 3 11 19 25 39 31 45 32 15 0z m-3137 -217 l5 -218 -29 0 -29 0 0
219 c0 201 1 220 18 224 9 2 20 1 23 -2 4 -3 9 -104 12 -223z m2207 213 c0
-11 -4 -23 -10 -26 -6 -4 -10 5 -10 19 0 14 5 26 10 26 6 0 10 -9 10 -19z
m-2285 -439 c-3 -3 -7 -3 -9 -1 -9 9 -18 427 -10 440 6 9 12 -74 17 -210 4
-123 5 -226 2 -229z m2143 392 c-5 -4 -157 -34 -175 -34 -7 0 -13 11 -13 24 0
33 11 39 105 51 80 10 80 10 83 -13 2 -13 2 -26 0 -28z m982 46 c0 -5 -4 -10
-10 -10 -5 0 -10 5 -10 10 0 6 5 10 10 10 6 0 10 -4 10 -10z m820 -10 c0 -37
-93 -59 -129 -31 l-24 18 59 16 c82 21 94 21 94 -3z m735 -5 c-36 -17 -55 -19
-55 -6 0 10 28 18 65 19 15 0 12 -3 -10 -13z m-4815 -225 c1 -118 1 -219 0
-225 -2 -5 -6 13 -10 40 -12 72 -12 421 -1 410 5 -6 10 -107 11 -225z m53 78
c11 -244 9 -298 -8 -298 -13 0 -15 21 -15 133 0 74 -3 175 -6 225 -6 78 -5 92
8 92 12 0 16 -27 21 -152z m3147 115 c45 -35 49 -42 49 -80 1 -24 0 -43 -2
-43 -2 0 -49 -7 -105 -15 l-101 -15 -91 62 c-49 34 -90 65 -90 68 0 4 166 38
283 59 4 0 30 -16 57 -36z m-1135 -13 c-9 -41 -17 -33 -9 9 4 17 9 30 11 27 3
-2 2 -19 -2 -36z m-2143 -187 c3 -120 4 -219 3 -221 -2 -2 -15 13 -31 33 -27
36 -27 38 -32 221 l-5 184 30 0 30 0 5 -217z m1058 87 c0 -68 -4 -121 -10
-125 -6 -4 -10 40 -10 125 0 85 4 129 10 125 6 -4 10 -57 10 -125z m1020 116
c0 -29 -20 -66 -35 -66 -10 0 -15 10 -15 33 0 19 3 37 7 40 12 13 43 7 43 -7z
m670 5 c-40 -12 -115 -23 -107 -15 8 9 72 22 107 22 l25 0 -25 -7z m1740 -1
c11 -7 9 -11 -13 -19 -35 -14 -43 -14 -69 0 -17 9 -18 13 -7 20 18 11 70 11
89 -1z m-4580 -52 c0 -29 3 -105 6 -168 5 -78 3 -112 -4 -105 -15 15 -27 325
-13 325 7 0 11 -21 11 -52z m2100 18 c0 -19 -4 -38 -10 -41 -6 -4 -10 10 -10
34 0 23 5 41 10 41 6 0 10 -15 10 -34z m2970 24 c13 -9 13 -12 -3 -25 -11 -7
-26 -11 -34 -8 -14 6 -14 8 0 18 9 7 14 15 10 18 -10 11 10 8 27 -3z m-5145
-111 c4 -60 5 -113 2 -116 -3 -3 -17 8 -31 23 -23 26 -25 38 -26 110 0 85 3
94 31 94 14 0 18 -15 24 -111z m2088 77 c4 4 7 -5 7 -19 0 -22 -5 -27 -25 -27
-22 0 -25 4 -25 33 0 42 11 54 25 27 6 -11 14 -17 18 -14z m2001 23 c-3 -6 -1
-15 6 -19 7 -5 -8 -12 -39 -20 -29 -7 -54 -10 -57 -7 -6 5 75 57 89 57 5 0 5
-5 1 -11z m801 1 c3 -5 -1 -10 -9 -10 -9 0 -16 5 -16 10 0 6 4 10 9 10 6 0 13
-4 16 -10z m-4972 -72 c2 -37 1 -66 -3 -63 -10 6 -22 114 -14 126 9 16 11 9
17 -63z m2067 37 c0 -19 0 -38 1 -42 0 -8 -60 -24 -133 -36 l-38 -6 0 49 0 49
58 6 c31 3 64 8 72 9 36 8 40 5 40 -29z m745 25 c-3 -5 -14 -10 -23 -10 -15 0
-15 2 -2 10 20 13 33 13 25 0z m1722 -17 l27 -18 -55 -16 c-30 -9 -55 -16 -56
-15 -1 0 1 13 4 28 3 17 13 28 27 31 11 2 22 5 24 6 1 0 15 -7 29 -16z m-4610
-15 c-3 -8 -6 -5 -6 6 -1 11 2 17 5 13 3 -3 4 -12 1 -19z m1943 -34 c0 -30 -3
-53 -7 -51 -8 5 -5 107 3 107 2 0 4 -25 4 -56z m-75 -7 c3 -44 0 -49 -22 -58
-22 -8 -32 -3 -86 43 l-61 53 65 6 c103 9 101 10 104 -44z m865 44 c-18 -10
-95 -23 -87 -14 7 6 64 21 87 22 13 0 13 -1 0 -8z m408 -3 c13 -13 17 -122 5
-116 -22 9 -143 94 -143 100 0 3 24 11 53 16 73 13 72 13 85 0z m-1577 -50
c-2 -48 -2 -48 28 -48 25 0 31 4 31 21 0 19 3 18 42 -13 l42 -33 -50 -11 c-27
-6 -68 -14 -91 -17 l-43 -7 0 81 c0 77 1 80 22 77 20 -3 22 -8 19 -50z m3311
36 c-18 -8 -38 -11 -44 -8 -15 9 17 23 52 22 23 0 22 -1 -8 -14z m-3232 -3 c0
-6 -4 -13 -10 -16 -5 -3 -10 1 -10 9 0 9 5 16 10 16 6 0 10 -4 10 -9z m980 0
c-20 -11 -160 -34 -166 -28 -5 4 130 33 166 35 13 1 13 0 0 -7z m2513 2 c-7
-2 -19 -2 -25 0 -7 3 -2 5 12 5 14 0 19 -2 13 -5z m267 -13 c-20 -13 -43 -13
-35 0 3 6 16 10 28 10 18 0 19 -2 7 -10z m-2449 -67 c82 -57 83 -57 53 -65
-16 -4 -58 -9 -94 -10 l-65 -3 -3 68 c-2 53 0 67 12 67 8 0 52 -26 97 -57z
m1419 39 c22 -18 22 -18 -56 -40 -76 -21 -79 -21 -107 -3 l-28 18 73 20 c92
27 91 27 118 5z m-1550 -43 c0 -31 -4 -48 -10 -44 -5 3 -10 26 -10 51 0 24 5
44 10 44 6 0 10 -23 10 -51z m396 -27 c-12 -11 -15 5 -8 44 l7 39 3 -39 c2
-21 1 -41 -2 -44z m1489 70 c-13 -12 -88 -32 -111 -31 -11 1 6 9 36 19 60 20
90 25 75 12z m-2328 -8 c-3 -3 -12 -4 -19 -1 -8 3 -5 6 6 6 11 1 17 -2 13 -5z
m363 -10 c0 -14 -3 -14 -15 -4 -8 7 -15 14 -15 16 0 2 7 4 15 4 8 0 15 -7 15
-16z m2487 0 c-3 -3 -12 -4 -19 -1 -8 3 -5 6 6 6 11 1 17 -2 13 -5z m-2987
-13 c-8 -5 -37 -12 -64 -16 -27 -3 -56 -9 -65 -12 -11 -4 -13 -3 -6 5 9 9 93
28 135 31 13 0 13 -1 0 -8z m1040 -33 c-28 -10 -39 -3 -33 22 5 18 6 18 30 3
l25 -17 -22 -8z m-618 -23 c75 -59 75 -60 -12 -70 -30 -3 -64 -8 -75 -11 -14
-3 -42 13 -88 51 -75 60 -77 53 23 74 74 15 79 13 152 -44z m5498 -171 c-86
-309 -155 -549 -201 -696 l-39 -126 -60 -4 c-33 -1 -60 -1 -60 2 0 11 414
1050 417 1046 2 -2 -24 -102 -57 -222z m-4522 204 c-6 -17 -136 -34 -150 -20
-7 7 10 13 54 20 90 14 100 14 96 0z m1425 -5 c-7 -2 -19 -2 -25 0 -7 3 -2 5
12 5 14 0 19 -2 13 -5z m-3048 -13 c-3 -5 -16 -10 -28 -9 -21 0 -21 1 -2 9 28
12 37 12 30 0z m2430 2 c-12 -11 -127 -43 -133 -37 -2 2 25 13 59 23 74 23 87
26 74 14z m-4486 -172 c7 -142 9 -154 31 -170 19 -14 21 -20 11 -39 -10 -17
-16 -19 -31 -11 -24 13 -28 40 -33 233 -6 205 11 195 22 -13z m3399 143 c2 -9
-7 -13 -26 -13 -16 0 -44 -3 -62 -7 -25 -5 -32 -3 -28 8 2 8 22 17 44 20 52 8
66 7 72 -8z m-1108 -33 c0 -22 -2 -40 -6 -40 -9 0 -74 54 -74 62 0 6 21 11 68
17 8 0 12 -13 12 -39z m80 -21 c0 -27 -4 -49 -10 -49 -5 0 -10 25 -10 56 0 34
4 53 10 49 6 -3 10 -28 10 -56z m2840 40 c0 -12 -66 -23 -87 -14 -14 6 -9 10
22 19 41 13 65 11 65 -5z m-3412 -4 c-8 -8 -210 -46 -222 -42 -6 2 14 9 44 15
30 6 75 15 100 20 53 12 85 14 78 7z m-1755 -149 c3 -71 2 -125 -3 -120 -4 5
-11 68 -15 139 -5 85 -4 127 3 120 5 -5 12 -68 15 -139z m3082 134 c6 -10 -5
-13 -104 -29 -35 -6 -68 -8 -72 -5 -22 13 -4 22 64 31 101 14 105 14 112 3z
m-978 -47 l58 -48 -62 -8 c-59 -8 -64 -7 -98 20 -38 30 -47 68 -17 76 43 11
64 4 119 -40z m292 20 l36 -28 -35 -6 c-45 -7 -50 -4 -50 32 0 36 4 36 49 2z
m1234 7 c-5 -18 -7 -18 -29 -3 -31 20 -30 23 5 23 24 0 28 -3 24 -20z m2045
-3 c3 -16 1 -17 -17 -7 -25 13 -28 33 -4 28 10 -2 19 -11 21 -21z m-1955 -12
c18 -25 18 -25 -8 -25 -20 0 -25 5 -25 25 0 31 10 31 33 0z m-231 -19 l51 -35
-39 -6 c-22 -3 -52 -9 -67 -12 -20 -3 -41 4 -78 27 -27 18 -48 34 -46 36 3 3
65 15 120 23 4 0 31 -14 59 -33z m1472 28 c22 -8 20 -21 -4 -27 -15 -4 -20 0
-20 14 0 21 1 22 24 13z m-3117 -36 c13 -12 23 -33 23 -49 0 -26 -2 -27 -82
-38 -46 -7 -97 -14 -113 -17 -26 -5 -39 1 -75 34 -25 22 -43 42 -40 44 6 5
214 45 244 47 11 0 30 -9 43 -21z m891 10 c-6 -17 -126 -34 -140 -20 -7 7 5
13 38 17 27 4 54 8 59 10 24 8 46 4 43 -7z m2135 -8 c-6 -23 -8 -24 -35 -9
-17 9 -18 13 -7 20 26 16 48 11 42 -11z m-3584 -14 c-10 -8 -73 -16 -64 -7 6
5 21 11 35 13 25 4 37 1 29 -6z m1847 -18 c-3 -13 -6 -33 -6 -45 0 -35 -43
-29 -97 12 -48 37 -46 41 17 48 88 10 93 9 86 -15z m-3052 -63 c7 -69 -3 -110
-15 -65 -10 36 -10 142 0 136 4 -3 11 -35 15 -71z m2390 66 c6 -9 -6 -13 -88
-26 -29 -5 -37 -3 -34 7 7 20 112 36 122 19z m736 -21 c0 -16 -4 -30 -10 -30
-5 0 -10 14 -10 30 0 17 5 30 10 30 6 0 10 -13 10 -30z m564 21 c8 -13 -23
-23 -48 -15 -21 7 -21 7 -1 15 28 11 43 11 49 0z m1594 -9 l23 -18 -41 -10
c-38 -11 -40 -10 -40 11 0 39 21 45 58 17z m-4224 -2 c-12 -5 -43 -11 -70 -14
l-49 -5 50 13 c28 8 59 14 70 14 19 1 19 0 -1 -8z m3589 -4 c22 -17 19 -19
-61 -41 -51 -14 -68 -16 -89 -6 -33 15 -25 22 45 43 71 20 82 21 105 4z m337
10 c0 -3 -24 -12 -52 -22 -29 -9 -60 -19 -68 -22 -8 -3 -11 -1 -7 4 12 13 127
49 127 40z m761 -16 c19 -15 20 -19 8 -20 -9 0 -27 9 -40 20 -19 15 -20 19 -8
20 9 0 27 -9 40 -20z m-3015 -51 c-5 -60 -16 -60 -16 0 0 32 4 50 10 46 5 -3
8 -24 6 -46z m90 19 c24 -17 41 -35 37 -39 -5 -4 -29 -10 -55 -13 l-48 -7 0
45 c0 27 5 46 11 46 6 0 31 -14 55 -32z m348 26 c18 -7 12 -24 -10 -24 -8 0
-14 7 -14 15 0 17 2 18 24 9z m335 -3 c17 -11 -1 -17 -80 -26 -80 -10 -86 11
-7 23 35 5 65 10 68 11 3 0 11 -3 19 -8z m-2620 -15 c-2 -2 -26 -6 -54 -9
l-50 -6 50 13 c45 12 66 12 54 2z m398 -53 c-2 -16 -4 -5 -4 22 0 28 2 40 4
28 2 -13 2 -35 0 -50z m837 58 c9 -15 -106 -31 -123 -18 -12 10 -7 13 25 18
62 10 92 10 98 0z m532 -49 c-3 -3 -18 5 -32 19 l-26 24 29 5 c24 5 28 2 31
-18 2 -13 1 -26 -2 -30z m3049 40 c-3 -3 -11 0 -18 7 -9 10 -8 11 6 5 10 -3
15 -9 12 -12z m-5625 -58 c0 -13 -8 -24 -19 -27 -27 -7 -31 0 -31 51 l0 45 25
-23 c14 -13 25 -33 25 -46z m4110 62 c0 -2 -7 -7 -16 -10 -8 -3 -12 -2 -9 4 6
10 25 14 25 6z m-2970 -46 c0 -22 -4 -40 -9 -40 -5 0 -23 -3 -40 -6 -31 -6
-31 -6 -31 34 0 43 7 50 53 51 25 1 27 -2 27 -39z m3866 26 c24 -18 22 -20
-55 -39 -56 -13 -67 -14 -84 -2 -23 16 -24 15 53 39 59 18 63 18 86 2z m-3226
-12 c0 -8 -5 -12 -10 -9 -6 4 -8 11 -5 16 9 14 15 11 15 -7z m656 -21 c53 -42
48 -48 -41 -58 -59 -6 -61 -5 -105 34 l-45 39 50 7 c28 4 55 8 60 10 25 8 39
3 81 -32z m1266 26 c29 -16 3 -31 -29 -16 -17 8 -20 13 -11 19 17 10 16 10 40
-3z m-3107 -9 c-3 -5 -11 -10 -16 -10 -6 0 -7 5 -4 10 3 6 11 10 16 10 6 0 7
-4 4 -10z m405 -29 c0 -37 -2 -39 -37 -45 -21 -4 -50 -9 -65 -12 -27 -5 -28
-4 -28 34 l0 39 53 10 c80 16 77 17 77 -26z m2164 30 c5 -8 -85 -23 -93 -16
-1 2 0 8 4 14 7 13 82 15 89 2z m-2624 -5 c0 -3 -4 -8 -10 -11 -5 -3 -10 -1
-10 4 0 6 5 11 10 11 6 0 10 -2 10 -4z m1170 -5 c0 -10 -36 -18 -125 -27 -85
-9 -88 11 -2 24 83 13 127 14 127 3z m1327 -13 c-3 -8 -6 -5 -6 6 -1 11 2 17
5 13 3 -3 4 -12 1 -19z m1225 -4 c-6 -35 -45 -49 -77 -28 -14 9 -25 18 -25 20
0 3 86 32 101 33 3 1 4 -11 1 -25z m344 0 c-76 -26 -86 -28 -86 -16 0 9 104
40 135 40 11 0 -11 -10 -49 -24z m1189 14 c14 -6 25 -15 25 -20 0 -11 -7 -10
-40 7 -47 24 -34 36 15 13z m-481 -14 c10 -26 7 -34 -11 -34 -18 1 -53 22 -53
33 0 3 10 8 23 10 12 2 25 5 28 6 4 0 10 -6 13 -15z m426 -10 c0 -2 -9 0 -20
6 -11 6 -20 13 -20 16 0 2 9 0 20 -6 11 -6 20 -13 20 -16z m-5280 12 c0 -2
-11 -6 -25 -8 -13 -3 -22 -1 -19 3 5 9 44 13 44 5z m3000 -16 c0 -23 -29 -27
-63 -8 l-22 12 25 7 c45 13 60 10 60 -11z m84 11 c3 -5 -1 -11 -9 -15 -9 -3
-15 0 -15 9 0 16 16 20 24 6z m-2734 -36 c0 -21 -5 -35 -12 -35 -7 0 -30 -3
-50 -6 -38 -7 -38 -7 -38 29 0 38 8 42 73 46 25 1 27 -2 27 -34z m1280 -11 c0
-51 0 -51 -62 5 -34 30 -28 41 23 41 l39 0 0 -46z m680 8 c-78 -12 -102 -11
-87 5 15 14 142 30 156 19 11 -8 -6 -14 -69 -24z m-1366 19 c3 -5 -1 -12 -10
-15 -22 -9 -24 -8 -24 9 0 16 25 21 34 6z m766 -38 c0 -13 -4 -23 -10 -23 -5
0 -10 17 -10 38 0 27 3 33 10 22 5 -8 10 -25 10 -37z m3475 35 c30 -13 33 -28
5 -28 -27 0 -70 21 -64 31 7 12 28 11 59 -3z m-4965 -33 c0 -19 -4 -35 -10
-35 -5 0 -10 16 -10 35 0 19 5 35 10 35 6 0 10 -16 10 -35z m2589 16 l24 -19
-96 -17 c-53 -9 -103 -15 -112 -11 -27 10 -17 35 18 41 25 4 85 14 137 24 3 0
16 -8 29 -18z m-2669 -26 c0 -24 -5 -35 -15 -35 -10 0 -15 10 -15 29 0 25 6
33 28 40 1 1 2 -15 2 -34z m1326 -5 c24 -22 40 -41 36 -43 -4 -3 -34 -8 -66
-12 -33 -4 -65 -9 -73 -12 -10 -4 -13 8 -13 51 l0 56 36 0 c29 0 46 -9 80 -40z
m1679 30 c3 -5 3 -10 -2 -10 -4 0 -25 -4 -45 -9 -29 -7 -38 -6 -38 4 0 12 14
17 67 24 6 0 15 -3 18 -9z m1085 -5 c0 -21 -49 -39 -74 -27 -18 8 -15 11 24
25 25 8 46 16 48 16 1 1 2 -6 2 -14z m-4150 -30 c0 -19 -4 -35 -10 -35 -11 0
-14 53 -3 63 11 12 13 8 13 -28z m670 25 c0 -5 -5 -10 -11 -10 -5 0 -7 5 -4
10 3 6 8 10 11 10 2 0 4 -4 4 -10z m567 -67 c-2 -16 -4 -3 -4 27 0 30 2 43 4
28 2 -16 2 -40 0 -55z m2641 62 c-10 -10 -108 -32 -108 -25 0 11 82 38 98 32
7 -2 12 -6 10 -7z m741 1 c9 -11 8 -15 -5 -20 -23 -9 -24 -8 -24 14 0 23 13
26 29 6z m767 -13 c-8 -8 -36 5 -36 17 0 7 6 7 21 0 11 -7 18 -14 15 -17z
m-4786 8 c0 -11 -25 -21 -56 -21 -28 0 -32 16 -6 23 31 8 62 7 62 -2z m570
-42 c0 -29 -4 -49 -10 -47 -16 5 -99 72 -100 80 0 6 18 9 93 16 14 2 17 -6 17
-49z m510 30 c0 -5 -7 -9 -15 -9 -8 0 -15 7 -15 15 0 9 6 12 15 9 8 -4 15 -10
15 -15z m2850 12 c0 -39 -30 -52 -62 -27 -24 17 -23 24 5 29 40 8 57 7 57 -2z
m-2536 -8 c9 -9 -122 -31 -141 -25 -25 8 -12 21 25 25 70 7 109 7 116 0z
m-2534 -13 c-8 -5 -22 -10 -30 -10 -13 0 -13 1 0 10 8 5 22 10 30 10 13 0 13
-1 0 -10z m380 -6 c0 -8 -5 -12 -10 -9 -6 4 -8 11 -5 16 9 14 15 11 15 -7z
m62 -1 c25 -22 23 -33 -7 -33 -20 0 -25 5 -25 25 0 29 7 31 32 8z m558 8 c0
-11 -18 -17 -84 -26 -38 -5 -47 -4 -44 7 6 19 128 37 128 19z m1960 -31 c0 -4
-41 -15 -91 -24 l-92 -17 -24 23 -25 23 94 16 c81 13 96 13 116 1 12 -8 22
-18 22 -22z m-1434 -12 c29 -24 53 -45 54 -48 0 -3 -37 -11 -82 -18 -79 -11
-83 -11 -105 10 -13 12 -23 33 -23 50 0 28 5 31 70 41 14 3 27 5 29 6 2 0 28
-18 57 -41z m1818 34 c5 -8 -156 -42 -197 -42 -70 0 81 43 170 49 12 0 24 -3
27 -7z m2426 -12 c0 -5 -13 -10 -30 -10 -16 0 -30 5 -30 10 0 6 14 10 30 10
17 0 30 -4 30 -10z m225 -2 c14 -6 25 -15 25 -20 0 -11 -7 -10 -40 7 -47 24
-34 36 15 13z m1698 -316 c-71 -177 -131 -322 -134 -322 -3 0 -14 6 -24 14
-18 13 -11 29 130 324 83 171 151 309 153 308 1 -2 -55 -148 -125 -324z
m-6883 309 c0 -9 -47 -21 -81 -21 -24 0 -25 17 -1 23 31 8 82 7 82 -2z m1460
0 c0 -8 -71 -22 -79 -15 -1 1 0 7 4 13 8 13 75 15 75 2z m1449 -10 l24 -18
-66 -13 c-59 -11 -69 -10 -97 7 l-32 18 49 12 c69 16 95 15 122 -6z m781 11
c0 -9 -130 -45 -138 -38 -5 6 3 10 68 30 54 17 70 19 70 8z m390 -7 c17 -9 30
-17 30 -19 0 -10 -141 -37 -159 -31 -36 11 -23 32 32 47 68 20 64 20 97 3z
m1070 -21 c0 -2 -13 2 -30 11 -16 9 -30 18 -30 21 0 2 14 -2 30 -11 17 -9 30
-18 30 -21z m-5284 -1 c-10 -10 -19 5 -10 18 6 11 8 11 12 0 2 -7 1 -15 -2
-18z m1494 18 c0 -6 -4 -13 -10 -16 -5 -3 -10 1 -10 9 0 9 5 16 10 16 6 0 10
-4 10 -9z m3104 -6 c17 -13 15 -15 -25 -25 -24 -6 -57 -15 -73 -20 -21 -7 -34
-6 -49 5 -23 16 -22 17 60 40 62 17 65 17 87 0z m-5115 -21 c18 -23 21 -41 21
-120 0 -52 -4 -94 -8 -94 -5 0 -17 6 -27 14 -17 12 -20 30 -23 120 -5 113 1
126 37 80z m441 11 c0 -8 -7 -15 -15 -15 -26 0 -18 20 13 29 1 1 2 -6 2 -14z
m610 -46 c0 -37 -4 -58 -10 -54 -18 11 -12 115 7 115 2 0 3 -27 3 -61z m4600
41 c0 -18 -3 -19 -22 -9 -22 12 -22 12 -3 20 11 4 21 8 23 8 1 1 2 -8 2 -19z
m-5715 -100 c6 -97 9 -112 28 -125 12 -8 29 -15 38 -15 9 0 19 -9 22 -20 5
-18 0 -20 -38 -20 -23 0 -47 6 -53 13 -14 17 -28 277 -14 277 5 0 13 -50 17
-110z m1040 47 c-3 -49 -5 -52 -33 -58 -30 -6 -31 -5 -37 43 -8 54 -3 64 35
70 37 6 39 2 35 -55z m1443 36 c-4 -37 -43 -47 -80 -21 -37 25 -35 36 5 41 77
9 79 9 75 -20z m3016 18 c3 -5 -9 -11 -27 -14 -37 -5 -48 0 -27 13 19 12 47
13 54 1z m-5584 -46 c0 -45 -9 -56 -27 -32 -16 19 -21 66 -9 71 29 12 36 5 36
-39z m2004 37 c3 -5 -34 -14 -82 -21 -48 -7 -95 -15 -106 -18 -12 -3 -17 -1
-14 8 7 22 190 50 202 31z m-1554 -12 c0 -5 -7 -7 -15 -4 -8 4 -15 8 -15 10 0
2 7 4 15 4 8 0 15 -4 15 -10z m548 -47 c2 -28 -1 -54 -6 -57 -5 -3 -35 -8 -66
-12 l-56 -7 0 56 0 56 38 6 c20 4 44 8 52 9 29 7 35 -1 38 -51z m1639 35 c-3
-8 -6 -5 -6 6 -1 11 2 17 5 13 3 -3 4 -12 1 -19z m313 13 c0 -13 -131 -34
-143 -22 -6 6 10 13 44 19 72 13 99 14 99 3z m487 -6 c3 -9 3 -18 0 -21 -3 -3
-46 -13 -96 -22 -91 -16 -92 -16 -113 5 l-21 22 39 6 c21 4 55 11 74 15 61 14
110 11 117 -5z m-3507 -20 c0 -24 32 -67 57 -76 6 -2 14 -15 18 -28 6 -18 4
-22 -6 -15 -8 5 -23 7 -34 6 -36 -4 -49 14 -55 77 -4 46 -3 61 7 61 7 0 13
-11 13 -25z m5738 -17 c-31 -18 -89 -20 -116 -2 l-27 18 50 11 c41 10 55 9 77
-4 19 -10 24 -17 16 -23z m-3901 10 c-3 -8 -6 -5 -6 6 -1 11 2 17 5 13 3 -3 4
-12 1 -19z m598 -2 l29 -23 -71 -13 c-71 -13 -72 -13 -103 14 -33 27 -31 32
25 39 70 9 91 6 120 -17z m1375 15 c0 -12 -87 -24 -102 -14 -9 5 -3 10 17 14
46 10 85 10 85 0z m342 -68 c135 -91 122 -82 116 -88 -5 -5 -199 124 -228 151
-32 31 5 10 112 -63z m537 58 l24 -19 -55 -16 c-69 -20 -89 -20 -114 -2 -21
16 -24 15 61 40 63 18 56 19 84 -3z m1507 5 c32 -24 7 -30 -28 -7 -27 17 -29
21 -12 21 11 0 29 -6 40 -14z m-5316 -55 l0 -58 -47 -6 c-27 -3 -49 -4 -50 -3
-1 1 -3 26 -5 56 -3 53 -2 55 27 61 73 16 75 15 75 -50z m4193 45 c16 -12 10
-16 -52 -31 -65 -16 -111 -14 -111 4 0 6 105 37 135 40 6 0 18 -6 28 -13z
m-2309 -17 c-8 -14 -24 -10 -24 6 0 9 6 12 15 9 8 -4 12 -10 9 -15z m2626 12
c0 -10 -100 -35 -107 -27 -3 3 15 10 38 16 24 6 49 13 54 15 6 2 11 4 13 4 1
1 2 -3 2 -8z m-4640 -37 c0 -21 -4 -33 -10 -29 -5 3 -10 19 -10 36 0 16 5 29
10 29 6 0 10 -16 10 -36z m934 27 c8 -12 -149 -35 -166 -25 -9 6 7 13 47 20
76 15 112 16 119 5z m1026 -1 c0 -5 -5 -10 -11 -10 -5 0 -7 5 -4 10 3 6 8 10
11 10 2 0 4 -4 4 -10z m480 -24 c10 -13 10 -16 -3 -16 -8 0 -29 -3 -47 -6 -31
-7 -32 -6 -25 17 13 42 42 44 75 5z m-2520 -44 c0 -34 0 -35 -20 -17 -13 12
-20 31 -20 53 0 34 0 35 20 17 13 -12 20 -31 20 -53z m1478 36 l-3 -33 -103
-18 -102 -19 -35 31 -35 30 33 6 c89 17 195 33 220 34 26 1 28 -2 25 -31z
m1442 22 c0 -5 -7 -10 -15 -10 -8 0 -15 5 -15 10 0 6 7 10 15 10 8 0 15 -4 15
-10z m2452 -4 c21 -15 14 -26 -16 -26 -21 1 -56 22 -56 34 0 11 55 6 72 -8z
m-5438 -11 c3 -8 1 -15 -3 -15 -5 0 -11 7 -15 15 -3 8 -1 15 3 15 5 0 11 -7
15 -15z m2033 9 c-3 -3 -12 -4 -19 -1 -8 3 -5 6 6 6 11 1 17 -2 13 -5z m453
-19 c0 -14 -4 -25 -10 -25 -5 0 -10 11 -10 25 0 14 5 25 10 25 6 0 10 -11 10
-25z m410 16 c0 -12 -18 -18 -83 -26 -76 -10 -75 10 1 23 78 13 82 13 82 3z
m-2980 -32 c19 -35 10 -42 -20 -14 -30 28 -32 49 -4 38 8 -3 19 -14 24 -24z
m2499 24 c0 -5 -4 -16 -7 -26 -7 -16 -9 -16 -31 -1 -18 13 -20 18 -10 25 17
11 49 12 48 2z m-515 -12 c8 -12 -119 -35 -141 -26 -13 6 -1 11 42 20 78 16
93 17 99 6z m2886 -16 c0 -30 -6 -31 -44 -6 -25 17 -26 20 -10 24 43 11 54 7
54 -18z m-581 1 c9 -11 7 -15 -9 -19 -15 -4 -20 0 -20 14 0 22 13 25 29 5z
m1031 -10 c0 -31 -44 -41 -83 -18 l-29 17 39 12 c60 18 73 16 73 -11z m-5520
-36 c0 -27 -4 -50 -10 -50 -5 0 -10 23 -10 50 0 28 5 50 10 50 6 0 10 -22 10
-50z m950 34 c0 -8 -5 -12 -10 -9 -6 4 -8 11 -5 16 9 14 15 11 15 -7z m1585 0
c33 -21 25 -30 -32 -38 -27 -4 -56 -9 -65 -12 -14 -4 -18 1 -18 20 0 20 6 27
28 32 15 3 32 7 37 9 19 6 26 5 50 -11z m3496 -4 c32 -26 3 -27 -31 0 -19 15
-21 20 -9 20 9 0 27 -9 40 -20z m-5156 -10 c-9 -14 -65 -18 -65 -4 0 7 12 14
28 16 31 4 44 0 37 -12z m573 -17 c3 -34 0 -36 -68 -48 -30 -5 -41 -2 -75 28
l-40 35 65 10 c101 15 114 13 118 -25z m1482 28 c0 -9 -131 -33 -139 -26 -8 9
9 18 46 25 54 11 93 11 93 1z m493 -46 c37 -25 69 -51 72 -56 9 -13 -7 -17
-120 -33 -89 -12 -102 -12 -123 2 -22 14 -24 21 -18 65 3 27 7 51 9 54 7 6 91
21 102 18 6 -2 41 -24 78 -50z m318 14 c33 -22 59 -42 57 -44 -2 -1 -28 -6
-59 -9 l-57 -7 -3 50 c-2 28 -3 51 -1 51 2 0 30 -18 63 -41z m657 24 c-2 -12
-13 -18 -31 -18 -33 0 -37 18 -5 27 37 10 40 9 36 -9z m357 7 c-11 -5 -29 -8
-40 -8 -16 0 -15 2 5 8 34 11 60 11 35 0z m154 -19 l24 -18 -46 -11 c-64 -17
-69 -16 -61 11 13 41 44 48 83 18z m-4861 -111 c-1 -88 -1 -91 -8 -40 -12 83
-12 168 0 150 5 -8 9 -58 8 -110z m702 107 c0 -9 -22 -17 -65 -23 -49 -8 -65
-7 -65 2 0 7 25 16 58 22 31 5 60 10 65 11 4 0 7 -5 7 -12z m1160 9 c0 -3 -4
-8 -10 -11 -5 -3 -10 -1 -10 4 0 6 5 11 10 11 6 0 10 -2 10 -4z m4075 -14 c-3
-3 -11 0 -18 7 -9 10 -8 11 6 5 10 -3 15 -9 12 -12z m-5560 -2 c3 -5 1 -10 -4
-10 -6 0 -11 5 -11 10 0 6 2 10 4 10 3 0 8 -4 11 -10z m1403 -2 c-6 -16 -144
-42 -167 -32 -13 6 85 32 162 43 5 0 7 -5 5 -11z m942 8 c0 -3 -4 -8 -10 -11
-5 -3 -10 -1 -10 4 0 6 5 11 10 11 6 0 10 -2 10 -4z m410 -21 c0 -30 -11 -32
-34 -6 -17 18 -17 19 1 24 32 8 33 7 33 -18z m2133 6 l29 -18 -25 -7 c-14 -3
-32 -9 -41 -12 -12 -5 -16 0 -16 18 0 42 12 46 53 19z m547 -1 c0 -23 -9 -25
-44 -9 -32 15 -24 29 15 29 22 0 29 -5 29 -20z m-4670 -24 c42 -38 40 -40 -34
-51 l-46 -7 0 40 c0 30 4 42 18 45 9 3 19 5 21 6 2 0 21 -14 41 -33z m1094 15
c17 -19 17 -20 -21 -26 -21 -4 -54 -11 -75 -15 -30 -6 -40 -4 -57 14 l-22 21
53 11 c79 17 103 16 122 -5z m2486 15 c0 -11 -19 -15 -25 -6 -3 5 1 10 9 10 9
0 16 -2 16 -4z m-4210 -21 c0 -17 -45 -21 -55 -6 -4 8 4 12 48 20 4 0 7 -6 7
-14z m2050 -3 c0 -12 -133 -31 -144 -21 -5 4 2 10 15 13 13 3 33 7 44 9 36 8
85 7 85 -1z m-2184 -29 c-10 -10 -19 5 -10 18 6 11 8 11 12 0 2 -7 1 -15 -2
-18z m49 17 c3 -5 1 -10 -4 -10 -6 0 -11 5 -11 10 0 6 2 10 4 10 3 0 8 -4 11
-10z m475 -35 c0 -25 -4 -45 -10 -45 -11 0 -14 73 -3 83 11 12 13 8 13 -38z
m2128 -7 c38 -30 60 -54 52 -55 -8 -2 -58 -9 -110 -17 l-94 -13 -63 50 c-35
28 -61 52 -59 54 6 7 140 31 175 32 26 1 48 -10 99 -51z m1562 33 l24 -19 -39
-10 c-78 -21 -113 -24 -134 -13 -12 7 -21 15 -21 20 0 6 53 21 140 40 3 0 16
-8 30 -18z m1045 7 c35 -16 31 -25 -12 -32 -21 -4 -45 -9 -54 -12 -9 -2 -27 4
-40 15 l-24 19 35 10 c48 14 65 14 95 0z m-4815 -52 c0 -41 -2 -44 -30 -48
-29 -4 -30 -3 -30 37 0 48 5 55 37 55 21 0 23 -5 23 -44z m1153 26 c16 -18 15
-19 -38 -29 -53 -9 -55 -9 -55 12 0 12 3 25 7 28 13 14 70 6 86 -11z m4163 3
c14 -11 15 -14 4 -14 -8 0 -24 6 -34 14 -15 11 -16 15 -5 15 8 0 24 -7 35 -15z
m-4736 -4 c0 -11 -25 -21 -51 -21 -26 0 -24 18 4 23 39 8 47 7 47 -2z m447
-28 c-3 -10 -5 -4 -5 12 0 17 2 24 5 18 2 -7 2 -21 0 -30z m3147 22 c11 -8 18
-16 15 -18 -2 -2 -33 -11 -68 -20 -58 -14 -66 -14 -88 0 -29 19 -27 21 34 38
63 17 84 17 107 0z m1080 0 c11 -8 16 -15 10 -15 -5 0 -18 7 -28 15 -11 8 -16
15 -10 15 5 0 18 -7 28 -15z m-5994 -21 c0 -8 -4 -14 -10 -14 -5 0 -10 9 -10
21 0 11 5 17 10 14 6 -3 10 -13 10 -21z m620 -18 l0 -45 -45 -7 c-55 -8 -88
14 -83 55 3 27 28 36 101 40 26 1 27 -1 27 -43z m1565 34 c-5 -8 -94 -25 -110
-21 -17 4 -1 17 27 22 53 10 90 10 83 -1z m-2302 -61 c4 -42 12 -68 26 -83 23
-24 28 -66 9 -66 -26 1 -47 28 -52 66 -16 127 -17 144 -3 144 10 0 16 -18 20
-61z m1815 39 c-4 -30 -52 -37 -80 -11 -20 18 -20 18 4 24 12 4 36 7 51 8 24
1 28 -3 25 -21z m853 9 c-1 -4 -1 -29 -1 -57 0 -64 -16 -65 -88 -5 -58 48 -58
49 23 64 55 9 67 9 66 -2z m2770 -3 c17 -8 29 -17 27 -19 -2 -2 -38 -12 -80
-21 -74 -16 -78 -16 -105 1 l-28 18 70 18 c90 22 81 21 116 3z m579 -1 l25
-18 -30 -6 c-35 -6 -93 20 -72 33 20 13 51 9 77 -9z m-4760 -12 c0 -9 -151
-34 -158 -26 -10 10 5 15 74 28 68 13 84 13 84 -2z m-723 -3 c12 -15 25 -78
17 -78 -3 0 -25 17 -50 37 -38 32 -42 39 -27 45 28 11 50 9 60 -4z m3640 -64
c132 -85 143 -94 123 -94 -8 0 -71 38 -139 85 -69 47 -119 85 -113 85 6 0 64
-34 129 -76z m-2547 41 c22 -23 22 -25 4 -25 -10 0 -36 -3 -56 -6 -36 -6 -38
-5 -38 19 0 20 6 27 28 30 15 2 30 5 33 6 3 0 16 -10 29 -24z m440 16 c0 -4
-34 -15 -75 -23 -57 -12 -75 -12 -75 -3 0 7 24 17 53 22 69 14 97 15 97 4z
m4200 -1 c0 -5 -4 -10 -10 -10 -5 0 -10 5 -10 10 0 6 5 10 10 10 6 0 10 -4 10
-10z m-2348 -12 c13 -10 15 -25 11 -65 -3 -29 -9 -53 -13 -53 -11 0 -160 103
-156 107 5 5 91 20 122 22 11 0 27 -5 36 -11z m805 -33 c-9 -23 -84 -29 -115
-9 l-27 17 70 17 c72 16 85 12 72 -25z m1090 30 c7 -21 2 -25 -41 -32 -35 -6
-96 12 -96 28 0 8 37 14 98 17 21 1 35 -3 39 -13z m-4310 -32 c-3 -10 -5 -4
-5 12 0 17 2 24 5 18 2 -7 2 -21 0 -30z m873 -18 c0 -30 -4 -55 -10 -55 -11 0
-14 93 -3 103 12 12 13 8 13 -48z m126 -37 c-22 -13 -101 -13 -100 0 1 6 2 30
3 52 l1 41 54 -43 c31 -25 48 -46 42 -50z m-616 72 c0 -5 -5 -10 -11 -10 -5 0
-7 5 -4 10 3 6 8 10 11 10 2 0 4 -4 4 -10z m847 -27 c-3 -10 -5 -4 -5 12 0 17
2 24 5 18 2 -7 2 -21 0 -30z m-2531 -80 c7 -87 1 -99 -31 -63 -23 26 -34 148
-14 161 25 15 38 -14 45 -98z m222 78 c2 -13 -1 -28 -6 -33 -6 -6 -11 3 -14
26 -4 40 15 46 20 7z m512 19 c0 -5 -4 -10 -10 -10 -5 0 -10 5 -10 10 0 6 5
10 10 10 6 0 10 -4 10 -10z m875 0 c3 -5 1 -10 -4 -10 -6 0 -11 5 -11 10 0 6
2 10 4 10 3 0 8 -4 11 -10z m485 -17 c0 -25 0 -26 -20 -8 -11 10 -20 22 -20
27 0 4 9 8 20 8 15 0 20 -7 20 -27z m4045 15 c14 -6 25 -15 25 -20 0 -13 -13
-10 -45 12 -33 22 -21 27 20 8z m-6219 -76 c-11 -10 -26 11 -26 37 0 43 14 47
23 5 4 -20 5 -39 3 -42z m734 64 c0 -8 -13 -16 -30 -18 -20 -3 -30 0 -30 8 0
7 12 15 28 17 15 2 28 5 30 6 1 0 2 -5 2 -13z m489 -7 c13 -11 22 -21 20 -22
-2 -2 -58 -13 -123 -25 -87 -15 -123 -18 -133 -10 -34 28 -6 39 207 76 3 1 16
-8 29 -19z m3721 -4 c0 -29 -11 -31 -47 -8 l-26 17 24 7 c42 12 49 10 49 -16z
m-2280 5 c0 -5 -4 -10 -10 -10 -5 0 -10 5 -10 10 0 6 5 10 10 10 6 0 10 -4 10
-10z m2790 -5 l25 -13 -30 -7 c-17 -4 -36 -8 -42 -11 -7 -2 -13 5 -13 15 0 34
19 39 60 16z m577 -1 c11 -28 -12 -37 -48 -18 l-34 18 30 7 c45 10 45 10 52
-7z m138 -2 c-3 -3 -11 0 -18 7 -9 10 -8 11 6 5 10 -3 15 -9 12 -12z m-4601
-1 c3 -4 -26 -13 -64 -20 -83 -13 -90 -14 -90 -2 0 17 145 38 154 22z m492
-31 c51 -47 60 -42 -115 -65 -106 -14 -115 -14 -133 1 -10 10 -18 29 -18 44 0
26 3 27 93 42 129 22 125 22 173 -22z m1308 -11 c4 -28 5 -54 2 -56 -3 -3 -33
17 -68 43 l-63 49 35 6 c84 15 87 14 94 -42z m573 -63 c-43 -5 -80 -6 -83 -4
-2 3 -2 30 2 61 l7 56 76 -52 76 -52 -78 -9z m1389 66 c-9 -8 -59 11 -63 25
-3 7 9 13 29 15 26 2 34 -1 36 -15 2 -10 1 -21 -2 -25z m-4986 28 c0 -5 -2
-10 -4 -10 -3 0 -8 5 -11 10 -3 6 -1 10 4 10 6 0 11 -4 11 -10z m270 0 c0 -5
-13 -10 -30 -10 -16 0 -30 5 -30 10 0 6 14 10 30 10 17 0 30 -4 30 -10z m-86
-21 c-7 -11 -34 -12 -34 -1 0 14 11 21 26 15 8 -3 11 -9 8 -14z m3162 -100
c-17 -4 -52 -9 -78 -12 -53 -5 -58 1 -58 86 l0 48 84 -58 c83 -58 83 -58 52
-64z m2638 83 c-16 -4 -44 15 -44 29 0 4 13 0 30 -9 21 -12 25 -18 14 -20z
m-3111 -53 l97 -74 -82 -12 c-46 -6 -101 -12 -124 -12 l-40 -1 8 81 c8 87 14
103 32 96 6 -3 55 -38 109 -78z m1562 68 c10 -8 14 -16 9 -19 -15 -8 -134 -31
-139 -26 -11 11 9 47 29 51 45 9 83 6 101 -6z m1060 1 c14 -6 25 -14 25 -18 0
-9 -120 -24 -127 -16 -3 2 -2 14 2 25 7 24 57 29 100 9z m-5451 -17 c3 -5 -8
-11 -24 -13 -20 -3 -30 0 -30 9 0 14 46 18 54 4z m426 -16 c0 -14 -4 -25 -10
-25 -11 0 -14 33 -3 43 11 11 13 8 13 -18z m474 17 c7 -12 -245 -55 -256 -44
-6 6 27 16 89 27 54 9 103 18 108 20 20 7 54 5 59 -3z m1730 -44 c-4 -29 -8
-55 -10 -57 -4 -4 -113 82 -113 91 -1 8 36 14 92 17 l38 1 -7 -52z m2156 28
c0 -2 -9 -6 -20 -9 -15 -4 -20 0 -20 14 0 17 3 18 20 9 11 -6 20 -12 20 -14z
m-5016 -12 c8 -21 8 -24 -3 -24 -5 0 -11 9 -14 20 -6 24 8 27 17 4z m576 -9
c0 -15 -6 -25 -14 -25 -8 0 -21 -3 -30 -6 -12 -5 -16 0 -16 18 0 31 7 38 37
38 18 0 23 -5 23 -25z m927 3 c43 -40 35 -47 -75 -64 -40 -6 -47 -3 -79 27
l-34 34 53 11 c82 18 109 16 135 -8z m3923 4 c22 -18 21 -18 -69 -31 -79 -11
-93 -11 -112 3 l-22 15 24 5 c13 3 42 9 64 14 62 15 91 14 115 -6z m-5580 -25
c0 -23 46 -77 67 -77 7 0 13 -11 13 -25 0 -23 -3 -25 -27 -19 -61 14 -73 29
-73 95 0 38 4 58 10 54 6 -3 10 -16 10 -28z m2849 -39 c100 -81 100 -80 -12
-91 -47 -5 -50 -3 -127 60 -44 35 -80 68 -80 73 0 5 17 12 38 15 20 4 44 8 52
10 8 1 21 3 27 4 7 0 53 -32 102 -71z m3301 62 c-14 -4 -34 -8 -45 -9 -16 -1
-17 1 -5 9 8 5 29 9 45 9 29 -1 29 -1 5 -9z m-5552 -12 c35 -35 -14 -57 -55
-25 l-27 22 29 6 c17 4 32 7 36 8 3 0 10 -4 17 -11z m5752 -14 c0 -2 -9 0 -20
6 -11 6 -20 13 -20 16 0 2 9 0 20 -6 11 -6 20 -13 20 -16z m-1461 -3 c15 -10
-26 -24 -104 -35 -61 -9 -79 9 -24 24 24 6 49 13 54 15 19 7 60 5 74 -4z
m1061 0 c0 -8 -70 -21 -113 -21 -34 0 -12 11 40 20 68 11 73 11 73 1z m293 -8
l32 -17 -38 -8 c-30 -6 -46 -4 -68 9 -26 15 -27 19 -12 25 30 11 52 9 86 -9z
m-5813 -18 c0 -30 -20 -33 -44 -6 -19 21 -21 19 37 30 4 0 7 -10 7 -24z m871
-17 c-7 -33 -7 -33 -84 -42 -76 -9 -79 -8 -103 16 l-26 25 104 20 c56 10 106
18 109 16 4 -1 4 -17 0 -35z m1211 25 c19 -17 22 -43 12 -105 -10 -59 -42 -52
-137 30 l-77 67 67 11 c97 16 114 16 135 -3z m-1702 -3 c0 -5 -5 -10 -11 -10
-5 0 -7 5 -4 10 3 6 8 10 11 10 2 0 4 -4 4 -10z m570 -15 c0 -14 -4 -25 -10
-25 -5 0 -10 11 -10 25 0 14 5 25 10 25 6 0 10 -11 10 -25z m3899 11 c9 -11
-2 -15 -59 -23 -93 -12 -129 8 -48 27 53 13 95 11 107 -4z m-4547 -18 c-9 -9
-15 -9 -24 0 -9 9 -7 12 12 12 19 0 21 -3 12 -12z m5259 -10 c-11 -30 -60 -35
-98 -11 l-27 18 34 6 c19 4 49 7 67 8 30 1 32 -1 24 -21z m-5770 10 c1 -2 4
-47 8 -101 6 -97 0 -117 -27 -84 -8 9 -17 134 -13 180 1 6 30 11 32 5z m1947
-153 c-2 -2 -24 -6 -49 -10 -45 -7 -47 -6 -118 55 -39 35 -69 65 -66 69 4 3
57 13 118 21 l112 16 3 -74 c2 -41 2 -76 0 -77z m2252 79 c86 -55 120 -81 120
-95 0 -23 11 -29 -143 76 -109 74 -132 95 -107 95 6 0 64 -34 130 -76z m1225
67 c-11 -11 -153 -27 -143 -17 6 8 85 23 128 25 15 1 20 -3 15 -8z m895 -11
c0 -13 -11 -13 -30 0 -12 8 -11 10 8 10 12 0 22 -4 22 -10z m-6015 -10 c3 -6
-1 -13 -10 -16 -19 -8 -30 0 -20 15 8 14 22 14 30 1z m484 -14 l22 -23 -23 -7
c-36 -9 -38 -8 -38 24 0 36 9 38 39 6z m3154 -2 c25 -17 36 -31 33 -41 -3 -8
-6 -27 -6 -41 0 -58 -12 -57 -114 14 -53 37 -95 69 -92 71 2 2 32 8 67 12 35
5 66 9 69 10 3 0 22 -11 43 -25z m-1923 -44 c0 -33 -3 -60 -7 -60 -5 0 -6 27
-5 60 5 77 12 77 12 0z m2710 50 c0 -5 -12 -12 -27 -16 -16 -3 -35 -8 -44 -10
-19 -5 -49 5 -49 16 0 8 34 15 93 18 15 1 27 -2 27 -8z m819 -9 l23 -18 -47
-7 c-27 -3 -49 -5 -50 -4 -2 2 1 13 6 26 10 27 36 28 68 3z m-5609 -50 c0 -78
13 -110 50 -124 19 -7 30 -18 30 -31 0 -16 -5 -18 -41 -13 -22 3 -43 8 -46 11
-3 2 -8 52 -10 110 -4 76 -3 106 6 106 7 0 11 -21 11 -59z m2440 24 c0 -19 -4
-35 -10 -35 -11 0 -14 53 -3 63 11 12 13 8 13 -28z m2775 25 c3 -5 -1 -10 -9
-10 -9 0 -16 5 -16 10 0 6 4 10 9 10 6 0 13 -4 16 -10z m260 -19 c-7 -24 -32
-27 -57 -7 -26 19 -22 24 20 28 46 4 45 4 37 -21z m700 19 c-3 -5 -15 -10 -25
-10 -10 0 -22 5 -25 10 -4 6 7 10 25 10 18 0 29 -4 25 -10z m305 -28 c-16 -6
-71 19 -64 29 2 4 21 1 40 -9 20 -9 31 -18 24 -20z m-5830 6 c0 -16 -3 -19
-11 -11 -6 6 -8 16 -5 22 11 17 16 13 16 -11z m1079 -58 l64 -55 -54 -7 c-30
-3 -69 -6 -86 -7 l-33 -1 0 68 c0 100 -4 100 109 2z m-129 10 c0 -33 -4 -60
-10 -60 -6 0 -10 27 -10 60 0 33 4 60 10 60 6 0 10 -27 10 -60z m2007 -27 c-4
-43 -10 -84 -12 -91 -3 -7 -38 13 -92 55 -87 67 -106 84 -98 91 5 5 198 29
206 26 3 -2 1 -38 -4 -81z m256 -41 l58 -40 -48 -6 c-27 -3 -88 -8 -137 -12
-83 -6 -88 -5 -83 12 3 11 9 46 12 79 11 103 8 101 78 51 34 -24 88 -62 120
-84z m1262 118 c-3 -5 -15 -10 -25 -10 -10 0 -22 5 -25 10 -4 6 7 10 25 10 18
0 29 -4 25 -10z m1271 -6 c18 -14 18 -14 -6 -3 -31 14 -36 19 -24 19 6 0 19
-7 30 -16z m-6242 -73 c6 -50 4 -62 -6 -59 -9 3 -14 28 -16 74 -4 86 13 75 22
-15z m422 62 c-2 -27 -19 -34 -38 -16 -26 23 -22 33 11 33 21 0 28 -5 27 -17z
m944 -10 c0 -25 -1 -26 -20 -8 -21 19 -18 35 6 35 9 0 14 -10 14 -27z m668
-38 c-2 -1 -20 -5 -40 -8 l-38 -6 0 40 0 41 40 -32 c23 -18 40 -33 38 -35z
m299 33 c-20 -13 -27 -9 -27 12 0 18 3 19 20 8 14 -9 16 -14 7 -20z m3503 22
c0 -5 -13 -10 -29 -10 -16 0 -44 -3 -62 -6 -24 -5 -31 -3 -24 4 17 18 115 28
115 12z m294 -32 c-34 -9 -35 -8 -28 19 6 21 7 21 31 5 l26 -16 -29 -8z m-991
13 l28 -18 -72 -12 c-39 -6 -73 -10 -75 -8 -2 1 -1 13 2 24 6 20 20 26 74 31
8 1 28 -6 43 -17z m-4843 -6 c17 -20 14 -22 -41 -30 -35 -5 -48 -3 -58 9 -11
13 -9 16 16 21 15 4 33 8 38 10 21 7 33 4 45 -10z m977 -51 c35 -31 62 -58 60
-60 -2 -2 -42 -9 -88 -14 -46 -5 -101 -12 -121 -15 l-38 -5 0 39 c0 60 11 100
29 104 9 3 34 5 55 6 34 1 47 -6 103 -55z m-207 -24 c0 -40 -4 -70 -10 -70
-11 0 -14 123 -3 133 12 13 13 7 13 -63z m2004 9 c10 -100 9 -109 -15 -109
-12 0 -62 33 -112 73 l-91 72 84 11 c138 18 126 23 134 -47z m944 14 l67 -48
-74 -7 c-41 -4 -76 -6 -79 -4 -5 6 8 106 15 106 2 0 34 -21 71 -47z m1546 39
c5 -9 -172 -37 -180 -29 -3 3 28 10 68 17 40 6 78 13 83 15 17 6 24 5 29 -3z
m355 -6 c23 -13 23 -14 5 -19 -10 -3 -43 -9 -72 -12 -42 -6 -58 -3 -80 11
l-27 19 35 6 c60 11 114 9 139 -5z m-4929 -38 l0 -42 -36 35 -35 34 33 6 c18
4 34 7 36 8 1 0 2 -18 2 -41z m3883 18 c24 -19 21 -26 -12 -26 -20 0 -30 6
-34 20 -6 24 18 27 46 6z m-4801 -23 c18 -17 28 -37 28 -56 0 -21 4 -28 14
-24 14 6 26 -38 26 -100 0 -38 -6 -39 -54 -16 -30 14 -35 22 -40 62 -16 131
-18 161 -10 161 4 0 21 -12 36 -27z m800 -41 l62 -59 -107 -12 c-106 -13 -107
-13 -136 11 -23 18 -30 31 -30 60 -1 36 -1 37 47 43 26 4 52 8 57 10 29 10 50
0 107 -53z m1809 10 c-1 -20 -4 -39 -6 -41 -6 -5 -85 59 -85 69 0 8 79 19 90
12 2 -2 3 -20 1 -40z m2943 42 c9 -3 16 -12 16 -19 0 -9 -28 -17 -84 -25 -77
-11 -86 -10 -112 7 l-28 18 64 11 c78 14 123 16 144 8z m-2785 -80 l75 -59
-80 -6 c-53 -4 -83 -3 -90 5 -15 16 -6 140 9 128 7 -5 45 -35 86 -68z m2389
59 c-10 -2 -26 -2 -35 0 -10 3 -2 5 17 5 19 0 27 -2 18 -5z m2622 -129 c-26
-87 -40 -119 -77 -166 -25 -32 -50 -58 -55 -58 -15 0 -399 180 -416 195 -2 2
6 31 19 64 22 61 22 61 63 62 22 0 142 8 266 17 168 13 226 14 228 5 2 -6 -11
-60 -28 -119z m-5314 59 l83 -68 -109 -9 -108 -9 -51 44 c-33 28 -51 52 -51
66 0 24 11 27 139 42 7 0 51 -29 97 -66z m2627 60 c-7 -2 -21 -2 -30 0 -10 3
-4 5 12 5 17 0 24 -2 18 -5z m-4653 -13 c0 -5 -2 -10 -4 -10 -3 0 -8 5 -11 10
-3 6 -1 10 4 10 6 0 11 -4 11 -10z m4781 -13 c-13 -13 -105 -22 -128 -12 -13
6 3 12 52 20 73 12 94 10 76 -8z m-4863 -59 c3 -51 1 -58 -16 -58 -30 0 -42
21 -42 73 0 47 1 48 28 45 26 -3 27 -6 30 -60z m-118 42 c0 -5 -2 -10 -4 -10
-3 0 -8 5 -11 10 -3 6 -1 10 4 10 6 0 11 -4 11 -10z m1857 -16 c27 -21 33 -32
33 -63 l0 -38 -67 -6 c-158 -15 -183 -6 -183 66 l0 46 43 5 c23 3 53 7 67 10
57 8 75 5 107 -20z m5080 -9 c-6 -19 -14 -35 -18 -35 -5 0 -34 12 -65 28 l-56
27 38 6 c22 3 55 7 76 8 l36 1 -11 -35z m-3951 4 c19 -21 19 -21 -6 -18 -14 2
-26 12 -28 22 -5 23 11 22 34 -4z m807 14 c-7 -2 -19 -2 -25 0 -7 3 -2 5 12 5
14 0 19 -2 13 -5z m-2173 -33 c0 -16 -4 -30 -10 -30 -5 0 -10 14 -10 30 0 17
5 30 10 30 6 0 10 -13 10 -30z m2077 24 c-3 -3 -12 -4 -19 -1 -8 3 -5 6 6 6
11 1 17 -2 13 -5z m-264 -21 c-7 -2 -19 -2 -25 0 -7 3 -2 5 12 5 14 0 19 -2
13 -5z m-1947 -50 c30 -25 51 -50 47 -54 -4 -4 -43 -9 -85 -11 l-77 -3 -55 45
c-30 25 -55 48 -56 52 0 7 47 14 123 16 45 2 54 -2 103 -45z m1767 40 c-7 -2
-19 -2 -25 0 -7 3 -2 5 12 5 14 0 19 -2 13 -5z m867 -3 c0 -5 -17 -10 -37 -9
-31 0 -34 2 -18 9 28 12 55 12 55 0z m-3920 -26 c0 -8 -4 -14 -10 -14 -5 0
-10 9 -10 21 0 11 5 17 10 14 6 -3 10 -13 10 -21z m165 16 c3 -5 1 -10 -4 -10
-6 0 -11 5 -11 10 0 6 2 10 4 10 3 0 8 -4 11 -10z m2622 -6 c-3 -3 -12 -4 -19
-1 -8 3 -5 6 6 6 11 1 17 -2 13 -5z m888 -4 c-16 -4 -57 -7 -90 -7 -59 0 -60
0 -15 7 25 4 65 7 90 7 40 1 42 0 15 -7z m-2754 -103 c-13 -13 -15 24 -3 74 7
33 7 32 10 -15 2 -27 -2 -54 -7 -59z m5405 47 c103 -55 124 -74 82 -74 -28 0
-198 100 -198 117 0 7 3 13 6 13 4 0 53 -25 110 -56z m-6562 -45 c3 -16 12
-29 20 -29 16 0 31 -68 24 -109 l-3 -21 -43 21 c-23 12 -47 29 -52 38 -5 10
-12 57 -16 107 l-6 89 35 -33 c19 -19 37 -47 41 -63z m1091 44 c-4 -27 -8 -49
-9 -50 -1 -1 -31 -5 -66 -8 -64 -7 -66 -6 -107 30 -24 20 -43 40 -43 44 0 8
126 26 199 30 l33 1 -7 -47z m1572 31 c-3 -3 -12 -4 -19 -1 -8 3 -5 6 6 6 11
1 17 -2 13 -5z m843 -4 c-144 -15 -212 -18 -203 -9 8 8 94 15 213 16 l65 0
-75 -7z m-2251 -44 l24 -26 -44 0 -45 0 4 35 c5 39 18 37 61 -9z m-541 -18
l-3 -43 -50 -6 c-47 -5 -52 -3 -89 32 l-40 37 74 9 c120 16 112 19 108 -29z
m1505 35 c-7 -2 -19 -2 -25 0 -7 3 -2 5 12 5 14 0 19 -2 13 -5z m936 3 c-2 -2
-40 -6 -84 -9 -48 -3 -70 -2 -55 3 24 8 148 14 139 6z m3416 -79 c6 -6 -12 2
-40 18 -27 15 -54 32 -60 38 -5 6 13 -2 40 -18 28 -15 55 -32 60 -38z m-6035
18 l34 -35 -40 0 c-33 0 -46 6 -74 35 l-34 35 40 0 c33 0 46 -6 74 -35z m250
10 c0 -14 -4 -25 -9 -25 -4 0 -6 11 -3 25 2 14 6 25 8 25 2 0 4 -11 4 -25z
m1073 18 c-7 -2 -19 -2 -25 0 -7 3 -2 5 12 5 14 0 19 -2 13 -5z m886 3 c-2 -2
-47 -6 -99 -8 -54 -3 -75 -2 -50 2 50 8 156 12 149 6z m-2509 -47 c0 -11 -4
-17 -10 -14 -5 3 -10 13 -10 21 0 8 5 14 10 14 6 0 10 -9 10 -21z m2093 14
c-18 -2 -48 -2 -65 0 -18 2 -4 4 32 4 36 0 50 -2 33 -4z m3997 -3 c0 -5 -4
-10 -9 -10 -6 0 -13 5 -16 10 -3 6 1 10 9 10 9 0 16 -4 16 -10z m124 -15 c19
-14 18 -15 -17 -15 -28 0 -35 3 -31 15 8 19 23 19 48 0z m-4401 -2 c-7 -2 -19
-2 -25 0 -7 3 -2 5 12 5 14 0 19 -2 13 -5z m3942 -3 c3 -5 -1 -10 -9 -10 -9 0
-16 5 -16 10 0 6 4 10 9 10 6 0 13 -4 16 -10z m148 -9 c5 -21 -10 -31 -49 -31
-25 0 -28 7 -18 34 9 24 60 21 67 -3z m-5728 -1 c3 -5 -1 -10 -9 -10 -9 0 -16
5 -16 10 0 6 4 10 9 10 6 0 13 -4 16 -10z m642 4 c-3 -3 -12 -4 -19 -1 -8 3
-5 6 6 6 11 1 17 -2 13 -5z m851 -1 c-10 -2 -26 -2 -35 0 -10 3 -2 5 17 5 19
0 27 -2 18 -5z m3738 -39 c-5 -13 -9 -12 -33 3 l-27 18 29 5 c32 6 40 -1 31
-26z m203 14 l36 -23 -39 -3 c-21 -2 -43 1 -49 7 -16 16 -37 13 -37 -4 0 -8
-7 -15 -15 -15 -16 0 -19 17 -9 44 9 24 70 20 113 -6z m346 4 c-3 -3 -11 0
-18 7 -9 10 -8 11 6 5 10 -3 15 -9 12 -12z m-832 -18 c-2 -7 8 -19 24 -28 26
-14 27 -15 5 -16 -19 0 -102 46 -102 57 0 2 18 3 39 2 26 -2 37 -7 34 -15z
m107 -6 c45 -26 50 -38 18 -38 -20 0 -108 45 -108 55 0 13 56 2 90 -17z m1066
7 c18 -14 18 -14 -6 -15 -35 0 -70 11 -70 21 0 14 55 10 76 -6z m-5159 -1 c-3
-3 -12 -4 -19 -1 -8 3 -5 6 6 6 11 1 17 -2 13 -5z m3811 -31 l47 -28 -70 -6
c-60 -6 -76 -4 -107 14 -59 32 -50 47 29 47 41 0 66 -7 101 -27z m1076 12 c19
-14 18 -15 -17 -15 -20 0 -40 0 -44 -1 -17 -1 -13 20 4 24 30 8 37 7 57 -8z
m-6091 -122 c2 -40 1 -73 -3 -73 -4 0 -19 11 -34 25 -24 22 -26 31 -26 102 l0
78 29 -30 c25 -26 29 -39 34 -102z m5995 109 c3 -9 -3 -13 -19 -10 -12 1 -24
9 -27 16 -3 9 3 13 19 10 12 -1 24 -9 27 -16z m-1578 -26 c0 -23 -13 -56 -21
-56 -5 0 -9 18 -9 40 0 31 3 38 15 34 8 -4 15 -11 15 -18z m1356 9 c17 -14 14
-15 -40 -13 -37 2 -61 8 -64 16 -6 18 79 16 104 -3z m-1656 -1 c0 -4 -5 -24
-11 -45 -13 -42 -27 -49 -104 -49 -41 0 -62 7 -110 38 -68 42 -78 37 100 51
61 4 113 9 118 10 4 0 7 -2 7 -5z m68 -19 c-9 -19 -9 -28 0 -37 18 -18 14 -28
-9 -28 -15 0 -19 5 -15 18 3 9 8 29 12 45 3 15 10 27 15 27 5 0 3 -11 -3 -25z
m1452 10 c11 -13 7 -15 -28 -15 -23 0 -44 5 -47 10 -4 6 -11 7 -17 4 -7 -4 -8
-2 -4 4 10 17 81 15 96 -3z m-246 -11 c9 -3 16 -10 16 -14 0 -10 -49 0 -56 11
-6 10 17 12 40 3z m1036 -4 c0 -5 -17 -10 -37 -9 -31 0 -34 2 -18 9 28 12 55
12 55 0z m430 -39 l95 -48 -52 -8 c-45 -6 -56 -3 -107 25 -31 18 -56 36 -56
40 0 15 12 40 19 39 3 0 49 -22 101 -48z m-7009 24 c19 -8 27 -14 19 -14 -14
0 -72 28 -59 29 4 0 22 -7 40 -15z m3855 -27 c-4 -24 -10 -46 -14 -50 -4 -4
-40 -8 -79 -10 l-73 -2 -45 44 -46 45 83 6 c46 3 105 6 132 7 l49 2 -7 -42z
m1604 32 c12 -8 9 -10 -12 -10 -15 0 -30 5 -33 10 -8 13 25 13 45 0z m-815
-10 c3 -5 -1 -10 -10 -10 -9 0 -13 5 -10 10 3 6 8 10 10 10 2 0 7 -4 10 -10z
m624 -4 c10 -12 2 -15 -46 -18 -32 -2 -69 1 -83 7 -23 10 -23 10 15 16 70 11
102 9 114 -5z m-1763 -38 c-4 -24 -11 -47 -17 -53 -5 -5 -44 -11 -85 -13 l-76
-4 -44 43 c-24 24 -44 47 -44 51 0 4 42 9 93 11 50 1 112 4 136 5 l44 2 -7
-42z m2741 36 c-3 -3 -12 -4 -19 -1 -8 3 -5 6 6 6 11 1 17 -2 13 -5z m-3150
-65 c-4 -29 -8 -54 -10 -56 -3 -2 -21 -7 -41 -10 l-36 -6 0 41 c0 22 -3 47 -6
56 -4 11 4 16 38 19 23 2 47 4 52 5 5 1 6 -21 3 -49z m93 47 c0 -2 -7 -7 -16
-10 -8 -3 -12 -2 -9 4 6 10 25 14 25 6z m2860 -11 c11 -13 7 -15 -23 -15 -28
0 -35 3 -31 15 4 8 14 15 24 15 10 0 23 -7 30 -15z m-1346 -27 c-68 -12 -104
-10 -98 6 7 18 79 25 113 11 24 -9 23 -10 -15 -17z m1195 23 c7 -5 10 -14 7
-20 -11 -17 -59 -12 -86 9 l-25 20 45 0 c25 0 51 -4 59 -9z m895 -28 l61 -38
-60 -9 c-60 -8 -62 -8 -124 32 -57 36 -61 41 -40 45 69 13 102 7 163 -30z
m151 -16 c16 -15 -48 20 -70 38 -11 9 -2 7 20 -6 22 -12 45 -26 50 -32z
m-4196 -9 c-4 -24 -8 -48 -9 -54 0 -7 -28 -15 -66 -19 -71 -7 -90 1 -174 74
l-35 30 35 2 c19 1 82 4 140 8 58 3 108 5 111 4 4 -1 3 -22 -2 -45z m1197 37
c18 -14 18 -14 -8 -15 -18 0 -28 5 -28 15 0 19 11 19 36 0z m-3706 -59 c0 -41
-17 -22 -25 29 -6 37 -5 39 9 21 9 -11 16 -33 16 -50z m5449 45 l24 -19 -41
-4 c-43 -4 -46 -1 -36 26 8 21 23 20 53 -3z m-2870 -36 c-2 -25 -7 -45 -12
-45 -5 0 -7 10 -3 23 3 12 6 32 6 45 0 12 2 22 5 22 3 0 5 -20 4 -45z m385
-17 c-8 -13 -54 -9 -54 5 0 6 3 23 7 36 l6 24 23 -28 c13 -16 21 -32 18 -37z
m1146 47 c0 -9 -9 -15 -25 -15 -24 0 -32 10 -18 23 12 13 43 7 43 -8z m1223 8
c-7 -2 -21 -2 -30 0 -10 3 -4 5 12 5 17 0 24 -2 18 -5z m952 -30 c36 -21 65
-41 65 -44 0 -3 -38 -10 -85 -15 l-85 -9 -67 41 -66 42 34 6 c127 21 134 20
204 -21z m-4189 -25 c-4 -28 -10 -56 -13 -61 -15 -24 -135 18 -218 77 l-30 21
75 6 c41 3 101 6 134 7 l59 2 -7 -52z m89 32 c-10 -11 -20 -18 -23 -15 -7 6
18 35 31 35 5 0 2 -9 -8 -20z m1813 8 c-3 -7 -10 -13 -16 -12 -7 1 -21 2 -32
3 -35 2 -21 21 16 21 24 0 34 -4 32 -12z m-102 -14 c18 -14 18 -14 -6 -3 -31
14 -36 19 -24 19 6 0 19 -7 30 -16z m1283 -3 l24 -18 -46 -7 c-35 -5 -54 -3
-79 10 l-33 18 30 7 c52 12 79 9 104 -10z m-3475 -59 c-4 -34 -10 -62 -14 -62
-6 0 -5 30 6 99 9 56 14 28 8 -37z m61 48 c-10 -11 -16 -22 -14 -23 2 -2 26
-20 53 -40 l49 -37 -44 0 c-24 0 -54 -3 -66 -6 -21 -6 -22 -4 -17 47 8 73 10
79 35 79 21 0 22 -1 4 -20z m2011 5 c18 -13 15 -14 -31 -15 -27 0 -60 -3 -72
-6 -14 -4 -23 -2 -23 5 0 29 94 41 126 16z m-2141 -47 c-10 -79 -10 -80 -57
-76 -38 3 -46 9 -84 58 -50 65 -47 68 69 69 l78 1 -6 -52z m1955 38 c0 -18
-50 -27 -75 -13 -18 11 -16 12 20 18 22 3 43 7 48 8 4 0 7 -5 7 -13z m2274 -1
c4 -10 20 -15 51 -15 33 0 57 -8 87 -27 l42 -28 -113 -12 -112 -13 -60 41
c-33 22 -59 43 -56 45 4 4 101 20 138 23 9 0 19 -6 23 -14z m-5794 -36 c0 -20
28 -29 92 -29 45 0 50 -3 110 -65 l64 -65 -43 0 c-39 0 -46 4 -84 53 -23 28
-44 53 -48 54 -3 1 -15 -4 -25 -12 -19 -15 -19 -16 12 -61 l32 -45 -57 3 -57
3 -12 42 c-7 23 -15 69 -18 102 -5 58 -4 60 15 48 10 -6 19 -19 19 -28z m1297
9 c-3 -7 -5 -2 -5 12 0 14 2 19 5 13 2 -7 2 -19 0 -25z m92 -25 c40 -57 40
-73 1 -73 -23 0 -68 77 -62 106 2 13 8 24 12 24 5 0 27 -26 49 -57z m3286 -34
c254 -146 457 -247 524 -260 l60 -13 6 -50 c3 -28 5 -101 3 -163 l-3 -112
-467 332 c-256 183 -464 334 -462 336 2 3 37 8 77 11 39 4 79 8 87 9 9 0 88
-40 175 -90z m-3450 19 c-4 -35 -8 -64 -9 -65 0 0 -28 -3 -60 -5 l-60 -3 -48
60 -49 60 38 6 c21 3 73 7 116 8 l79 1 -7 -62z m2085 47 c11 -13 6 -15 -33
-15 -37 0 -45 3 -41 15 4 8 18 15 34 15 15 0 33 -7 40 -15z m-2325 -7 c-3 -7
13 -35 35 -63 l40 -50 -32 -3 c-31 -3 -43 5 -68 47 -7 13 -12 12 -35 -3 -21
-14 -24 -20 -14 -32 6 -8 10 -16 8 -18 -8 -8 -89 -10 -89 -3 -1 4 2 34 6 67 7
66 7 65 106 69 34 1 46 -2 43 -11z m1142 -13 c27 -23 27 -24 6 -25 -12 0 -28
-3 -37 -6 -13 -5 -16 1 -16 25 0 37 10 39 47 6z m1047 10 c-7 -16 -68 -21
-101 -8 -15 6 -13 9 12 14 58 13 95 10 89 -6z m4149 -60 c59 -269 80 -733 57
-1310 -10 -247 -39 -747 -45 -753 -1 -1 -137 93 -301 210 -165 118 -586 418
-936 667 l-638 453 0 92 c0 51 -3 154 -7 229 l-6 136 89 -6 c111 -7 306 9 579
47 346 48 381 52 605 59 239 9 263 14 364 89 37 28 69 41 125 52 71 15 76 18
74 40 -3 34 6 70 16 70 4 0 15 -34 24 -75z m-7478 55 c3 -6 -1 -7 -9 -4 -18 7
-21 14 -7 14 6 0 13 -4 16 -10z m895 -59 c-3 -33 -8 -62 -10 -64 -3 -2 -20 -7
-38 -10 -31 -6 -38 -2 -93 52 -32 33 -59 64 -59 70 0 8 179 21 200 14 3 -1 3
-29 0 -62z m73 22 c-8 -65 -13 -67 -13 -5 0 29 4 52 10 52 6 0 7 -19 3 -47z
m4729 10 c32 -21 58 -41 58 -45 0 -5 -27 -8 -61 -8 -53 0 -69 5 -122 38 l-61
37 35 6 c72 13 92 9 151 -28z m-2595 10 c3 -7 -16 -12 -56 -15 -57 -3 -74 5
-54 26 11 11 106 2 110 -11z m1089 -70 c-14 -182 -8 -169 -95 -212 -157 -79
-1147 -488 -1157 -478 -4 4 -35 281 -57 520 l-13 137 33 0 c19 0 46 6 61 14
43 21 203 29 246 11 52 -22 104 -19 140 8 25 19 48 25 118 30 48 3 90 2 93 -3
3 -5 28 -16 55 -25 47 -16 53 -16 75 -1 14 9 25 23 25 31 0 26 248 40 328 18
40 -10 45 -9 69 13 15 14 38 24 56 24 l29 0 -6 -87z m-3607 23 c-9 -8 -10 -7
-5 7 3 10 7 26 7 35 1 9 4 6 6 -7 3 -13 -1 -28 -8 -35z m96 28 c9 -14 33 -44
53 -66 l36 -39 -39 3 c-68 6 -149 128 -85 128 10 0 25 -12 35 -26z m1371 -12
c-5 -4 -66 26 -66 33 0 3 16 -3 35 -12 19 -9 33 -18 31 -21z m874 28 c0 -5 -6
-10 -14 -10 -8 0 -18 5 -21 10 -3 6 3 10 14 10 12 0 21 -4 21 -10z m-2404 -31
c-3 -17 -6 -43 -6 -58 -1 -69 -37 -64 -123 18 -69 65 -66 69 57 70 l79 1 -7
-31z m4898 4 c25 -16 46 -31 46 -34 0 -10 -82 7 -128 26 -31 13 -40 20 -30 26
25 16 67 9 112 -18z m-2744 2 c0 -8 -9 -15 -20 -15 -20 0 -26 11 -13 23 12 13
33 7 33 -8z m-100 -5 c0 -5 -13 -10 -29 -10 -17 0 -33 5 -36 10 -4 6 8 10 29
10 20 0 36 -4 36 -10z m2113 -215 c163 -115 296 -213 297 -216 0 -3 -36 -22
-79 -41 l-80 -36 -6 27 c-8 35 -59 85 -108 106 -57 24 -172 45 -278 52 l-96 6
13 56 c8 31 17 102 20 159 4 56 10 101 14 100 4 -2 140 -97 303 -213z m-3246
183 c-3 -8 -6 -5 -6 6 -1 11 2 17 5 13 3 -3 4 -12 1 -19z m921 13 c17 -11 -32
-21 -99 -21 -39 0 -47 3 -43 15 5 11 22 15 68 15 33 0 67 -4 74 -9z m-2254
-51 c10 -65 35 -82 114 -79 73 3 116 -10 72 -22 -14 -4 -62 -7 -108 -8 -94 -1
-95 0 -108 99 -5 41 -4 50 8 50 10 0 18 -14 22 -40z m1895 26 c21 -12 18 -13
-45 -19 -111 -11 -166 -9 -162 6 4 10 42 16 163 25 11 1 31 -5 44 -12z m-299
-21 c0 -16 -9 -19 -34 -9 -25 9 -19 24 9 24 16 0 25 -6 25 -15z m-72 -13 c3
-10 -6 -12 -34 -10 -20 2 -39 9 -42 16 -3 10 6 12 34 10 20 -2 39 -9 42 -16z
m-140 -9 c2 -8 -5 -13 -17 -13 -12 0 -21 6 -21 16 0 18 31 15 38 -3z m-873 -3
c3 -5 -1 -10 -9 -10 -9 0 -16 5 -16 10 0 6 4 10 9 10 6 0 13 -4 16 -10z m745
-5 c0 -19 -17 -19 -50 0 l-25 14 38 1 c26 0 37 -4 37 -15z m-96 -4 c4 -5 -8
-12 -25 -16 -22 -5 -36 -3 -47 9 -15 15 -13 16 25 16 23 0 44 -4 47 -9z m-149
-11 c3 -5 5 -10 3 -11 -11 -3 -178 -14 -178 -11 0 2 6 9 13 17 14 17 152 21
162 5z m-285 -14 l32 -13 -53 -6 c-33 -3 -59 0 -68 7 -14 11 -6 14 50 25 4 0
21 -5 39 -13z m-191 -27 c-13 -4 -38 -7 -56 -8 -47 -1 -32 27 15 31 46 4 76
-13 41 -23z m-151 -1 c-7 -19 -70 -21 -93 -4 -19 14 -16 15 38 16 43 0 58 -3
55 -12z m1192 2 c0 -5 -11 -10 -25 -10 -14 0 -25 5 -25 10 0 6 11 10 25 10 14
0 25 -4 25 -10z m3289 -378 c-108 -50 -144 -57 -144 -28 0 15 22 30 94 62 91
41 95 42 119 26 l25 -16 -94 -44z m311 -112 l149 -105 1 -85 0 -85 -247 -107
c-137 -59 -255 -110 -264 -113 -14 -5 -13 2 5 52 16 45 21 82 21 168 0 108 -9
146 -59 266 -6 13 16 26 106 67 62 28 119 50 126 49 8 -1 81 -49 162 -107z
m-1400 23 c-49 -76 -72 -150 -79 -251 l-6 -93 -145 -65 c-80 -35 -150 -63
-157 -62 -6 2 -73 55 -147 118 l-136 114 73 29 c157 62 563 230 587 243 40 21
41 17 10 -33z m-483 -520 c-1 0 -279 -124 -617 -273 -338 -150 -869 -385
-1180 -522 -311 -138 -570 -252 -576 -255 -7 -2 -16 15 -22 39 -12 49 -38 76
-97 106 -102 50 -373 78 -470 48 -27 -8 -50 -14 -52 -12 -11 11 1100 466 2157
884 l575 228 142 -121 c77 -66 140 -121 140 -122z m2247 238 c3 -5 -1 -11 -9
-15 -9 -3 -15 0 -15 9 0 16 16 20 24 6z m309 -220 c103 -74 187 -136 187 -140
0 -4 -420 -192 -490 -219 -12 -5 -18 77 -24 299 l-5 197 30 12 c23 10 28 17
23 33 -6 17 1 15 42 -14 27 -19 133 -95 237 -168z m-513 145 c0 -21 -28 -35
-292 -150 -161 -70 -299 -130 -307 -133 -8 -4 -2 11 12 33 25 36 46 48 294
156 148 65 274 118 281 118 6 0 12 -11 12 -24z m-1633 -59 c-3 -7 -60 -37
-127 -66 -121 -52 -123 -53 -142 -34 -19 19 -17 20 119 81 115 51 139 58 146
46 5 -8 7 -21 4 -27z m1642 -397 l1 -136 -457 -199 c-251 -110 -462 -199 -468
-199 -20 2 -396 327 -388 335 5 4 107 50 228 102 121 52 357 154 525 227 168
73 359 156 425 184 l120 52 6 -115 c4 -64 7 -177 8 -251z m-1601 284 c59 -122
219 -233 386 -269 27 -6 16 -12 -98 -61 l-127 -55 -24 20 c-54 42 -374 315
-372 317 3 3 202 92 208 93 3 1 15 -20 27 -45z m-402 -28 c10 -8 17 -17 14
-19 -3 -3 -297 -134 -655 -292 -357 -159 -897 -397 -1200 -531 -302 -134 -554
-244 -560 -244 -6 0 -15 8 -22 19 -11 17 31 37 590 285 331 146 870 385 1197
530 327 145 600 265 606 265 5 1 19 -5 30 -13z m264 -226 c100 -85 187 -159
194 -163 7 -5 7 -10 1 -13 -246 -108 -2800 -1213 -2801 -1211 -1 1 7 36 18 77
25 94 20 218 -12 306 -12 32 -24 66 -27 75 -3 11 9 21 44 36 26 11 426 188
888 393 462 205 986 437 1165 516 179 79 330 143 337 141 6 -1 93 -72 193
-157z m2494 105 c11 -8 18 -16 15 -19 -2 -2 -121 -54 -264 -116 -143 -62 -273
-119 -288 -127 -28 -14 -28 -14 -25 17 3 31 8 33 263 145 143 63 265 114 270
114 6 0 19 -6 29 -14z m380 -273 c264 -188 268 -192 240 -202 -16 -6 -103 -42
-194 -80 -91 -37 -244 -100 -340 -140 -96 -40 -276 -115 -399 -166 -124 -51
-226 -92 -227 -91 -4 3 -24 611 -21 614 2 1 145 65 318 141 273 121 317 138
334 127 11 -7 141 -98 289 -203z m-2211 132 c37 -7 33 -9 -129 -79 -161 -70
-169 -72 -190 -57 -12 10 -21 18 -19 20 8 9 272 121 285 121 8 1 32 -2 53 -5z
m-399 -194 c-7 -6 -2939 -1277 -2942 -1275 -1 2 8 18 20 38 21 32 51 47 313
161 507 219 869 376 1730 749 802 347 841 363 862 348 11 -9 19 -18 17 -21z
m1486 7 c0 -22 -39 -41 -432 -214 -407 -178 -434 -188 -456 -175 -13 8 -19 18
-15 23 12 11 876 388 891 389 6 0 12 -11 12 -23z m-1227 -221 c103 -87 187
-162 187 -166 0 -4 -309 -142 -687 -308 -379 -165 -1079 -472 -1557 -681 -478
-210 -874 -381 -880 -380 -9 0 -301 376 -301 387 0 4 154 72 790 346 94 41
427 185 740 321 314 136 705 306 870 377 165 72 374 163 465 202 91 40 170 70
176 67 6 -3 95 -77 197 -165z m1240 -312 l5 -171 -174 -72 c-95 -39 -178 -71
-183 -71 -12 0 -471 389 -471 399 0 3 182 85 403 182 l402 176 6 -136 c4 -75
9 -213 12 -307z m1431 361 c11 -8 18 -17 15 -19 -6 -5 -1220 -507 -1242 -514
-15 -4 -18 0 -15 23 3 26 29 38 603 276 330 136 605 248 610 248 6 0 19 -6 29
-14z m446 -318 c69 -49 125 -90 126 -91 3 -3 -57 -639 -60 -643 -1 -1 -151
-43 -333 -93 -260 -71 -1384 -344 -1389 -337 -3 4 -24 727 -24 802 l1 80 127
52 c70 29 273 113 452 187 179 74 417 172 529 219 l205 84 120 -85 c67 -47
177 -126 246 -175z m-2876 64 c10 -10 14 -21 9 -24 -9 -5 -175 -78 -2743
-1203 -368 -161 -396 -172 -413 -157 -9 9 -14 20 -10 24 5 4 251 114 548 244
1557 682 1919 841 2235 980 190 84 348 153 351 154 3 0 14 -8 23 -18z m324
-275 c122 -104 221 -190 220 -192 -3 -2 -838 -349 -1118 -464 -88 -36 -2038
-843 -2185 -904 l-30 -13 -148 193 c-82 106 -148 197 -149 201 0 4 150 74 333
154 184 80 748 327 1254 549 1670 732 1569 688 1586 676 8 -6 115 -96 237
-200z m-4752 123 c17 -14 9 -51 -19 -96 -44 -70 -60 -131 -65 -250 l-4 -111
-112 -50 -111 -51 -72 147 c-100 204 -99 192 -16 245 37 25 129 77 203 116
135 71 162 78 196 50z m5432 -186 c-3 -24 -16 -32 -146 -85 -142 -58 -144 -59
-170 -42 -17 11 -22 19 -14 22 7 2 81 33 165 68 84 35 156 64 160 64 5 0 7
-12 5 -27z m7 -165 c3 -40 5 -110 3 -155 l-3 -82 -123 106 c-68 58 -122 107
-120 108 5 5 222 94 230 95 3 0 9 -33 13 -72z m-415 -3 c7 -9 11 -17 9 -19 -5
-5 -135 -60 -394 -166 -110 -45 -216 -89 -235 -97 -19 -8 -489 -203 -1045
-433 -555 -230 -1026 -425 -1045 -433 -19 -8 -125 -52 -235 -97 -110 -45 -242
-100 -293 -122 -74 -31 -97 -37 -108 -27 -8 6 -14 17 -14 23 0 6 152 74 338
150 446 184 483 199 1822 755 635 264 1162 480 1171 480 9 1 22 -6 29 -14z
m253 -216 l177 -150 0 -88 c0 -48 3 -148 6 -222 l7 -134 -84 -22 c-46 -12
-327 -85 -624 -163 -632 -165 -1438 -367 -1890 -475 -370 -88 -936 -215 -956
-215 -8 0 -53 52 -101 114 l-86 114 46 20 c44 19 1352 561 1637 678 72 30 477
198 900 373 424 176 775 320 781 320 5 1 90 -67 187 -150z m-5350 59 c4 -12 5
-23 4 -24 -1 -1 -48 -22 -104 -47 l-101 -44 -11 23 c-10 22 -7 25 37 44 26 11
70 31 97 44 63 31 71 31 78 4z m47 -118 c28 -54 116 -139 181 -175 30 -16 92
-41 138 -55 l83 -26 -190 -82 c-104 -45 -192 -82 -195 -82 -11 0 -227 349
-227 367 0 6 128 69 187 92 2 1 12 -17 23 -39z m548 -275 c1 -1 -108 -50 -244
-109 -230 -99 -247 -105 -260 -89 -7 10 -13 20 -14 23 0 3 96 46 213 97 191
82 216 91 257 86 25 -3 46 -7 48 -8z m291 -199 c79 -107 144 -197 143 -202 0
-4 -136 -67 -302 -140 l-301 -132 -53 72 c-110 149 -231 327 -226 334 4 6 578
260 590 261 3 0 70 -87 149 -193z m199 -271 c-2 -1 -140 -62 -306 -134 -286
-125 -305 -131 -318 -114 -7 10 -13 20 -13 23 0 3 136 64 302 137 301 131 302
131 320 111 10 -12 16 -22 15 -23z m185 -242 c75 -100 138 -187 139 -193 3
-10 -533 -240 -560 -240 -29 0 -340 346 -325 361 16 15 598 266 604 260 3 -3
68 -88 142 -188z m185 -244 c7 -12 12 -22 10 -23 -9 -7 -545 -226 -553 -226
-5 0 -17 8 -27 17 -17 16 -4 23 264 134 156 65 285 118 288 118 3 1 11 -8 18
-20z m121 -164 c39 -53 56 -82 48 -86 -20 -12 -326 -59 -455 -71 -111 -10
-127 -9 -160 6 l-37 18 26 14 c14 7 104 45 200 85 96 39 203 84 239 99 36 15
68 25 72 21 4 -3 34 -42 67 -86z"/>
</g>
</svg>
